<svg id="Capa_1" enable-background="new 0 0 512 512" height="512" viewBox="0 0 512 512" width="512" xmlns="http://www.w3.org/2000/svg"><g><g><g><g><g><path d="m420.347 133.608c-.006 0-.013 0-.019 0-1.108.001-2.124-.637-2.54-1.663-5.189-12.792-17.728-21.816-32.382-21.816-1.684 0-3.34.12-4.961.35-1.227.175-2.413-.493-2.885-1.639-5.233-12.696-17.723-21.637-32.308-21.637-5.704 0-11.089 1.368-15.844 3.793-1.305.665-2.88.203-3.613-1.064-6.041-10.448-17.333-17.478-30.269-17.478-5.454 0-10.616 1.251-15.216 3.48-.926.449-2.038.314-2.85-.318-5.922-4.619-13.366-7.376-21.459-7.376-8.092 0-15.536 2.757-21.459 7.376-.811.633-1.924.767-2.85.318-4.6-2.229-9.761-3.48-15.216-3.48-12.936 0-24.229 7.03-30.269 17.478-.733 1.268-2.308 1.729-3.613 1.064-4.756-2.425-10.14-3.793-15.844-3.793-14.585 0-27.075 8.94-32.308 21.637-.472 1.145-1.659 1.813-2.885 1.639-1.62-.231-3.277-.35-4.961-.35-14.654 0-27.193 9.024-32.382 21.816-.416 1.026-1.433 1.664-2.54 1.663-.006 0-.013 0-.019 0-19.624 0-35.47 16.177-34.928 35.924.522 19.032 16.616 33.96 35.655 33.96h327.24c19.039 0 35.133-14.928 35.655-33.96.54-19.747-15.306-35.924-34.93-35.924z" fill="#fbc980"/><path d="m423.273 203.204c1.265-3.516 1.989-7.287 2.068-11.224.406-20.265-15.9-36.82-36.073-36.82h-.02c-1.152 0-2.203-.685-2.637-1.752-5.367-13.19-18.305-22.492-33.423-22.492h-.075c-4.169.003-8.104-2.129-10.203-5.731-6.251-10.728-17.872-17.941-31.184-17.941-1.475 0-2.929.089-4.358.261-8.538 1.029-17.1-1.366-23.657-6.931-6.29-5.339-14.435-8.56-23.332-8.56-2.152 0-4.259.188-6.307.55-6.822 1.204-13.897.769-20.258-1.973-4.37-1.884-9.186-2.928-14.247-2.928-4.994 0-9.749 1.017-14.073 2.854-6.49 2.757-13.669 3.203-20.62 2.015-1.989-.34-4.033-.517-6.119-.517-7.378 0-14.238 2.215-19.953 6.015-6.25 4.157-13.146 6.58-20.387 7.696-1.758.271-3.274 1.424-3.955 3.067-.007.016-.013.032-.02.048-.476 1.154-1.693 1.807-2.928 1.633-1.607-.227-3.248-.344-4.918-.344-14.641 0-27.171 9.009-32.368 21.783-.42 1.033-1.438 1.697-2.554 1.697h-.019c-19.536 0-35.328 16.033-34.935 35.659.383 19.131 16.49 34.225 35.625 34.225h327.277c1.511 0 3.001-.104 4.469-.287h-.816z" fill="#fbd6a1"/><g><path d="m420.347 133.608h-.019c-1.108.001-2.124-.637-2.54-1.663-5.189-12.792-17.728-21.816-32.382-21.816-1.684 0-3.34.12-4.961.35-1.227.175-2.413-.493-2.885-1.639-5.233-12.696-17.723-21.637-32.308-21.637-5.704 0-11.089 1.368-15.844 3.793-1.305.665-2.88.203-3.613-1.064-6.041-10.448-17.333-17.478-30.269-17.478-5.454 0-10.616 1.251-15.216 3.48-.926.449-2.039.314-2.85-.318-5.922-4.619-13.366-7.376-21.459-7.376s-15.536 2.757-21.459 7.376c-.811.633-1.924.767-2.85.318-4.6-2.229-9.761-3.48-15.216-3.48-12.936 0-24.229 7.03-30.269 17.478-.733 1.268-2.308 1.729-3.613 1.064-4.756-2.425-10.14-3.793-15.844-3.793-14.585 0-27.075 8.94-32.308 21.637-.151.367-.376.685-.652.942 9.768-.318 19.107-2.698 27.301-8.148 5.534-3.681 12.178-5.826 19.323-5.826 2.02 0 4 .172 5.926.501 6.731 1.151 13.684.719 19.968-1.951 4.187-1.779 8.793-2.764 13.63-2.764 4.902 0 9.566 1.012 13.797 2.836 6.161 2.656 13.013 3.076 19.62 1.911 1.983-.35 4.024-.532 6.107-.532 8.431 0 16.164 2.986 22.2 7.959 6.513 5.365 14.927 8.053 23.305 7.043 1.384-.167 2.793-.253 4.222-.253 12.895 0 24.153 6.989 30.205 17.383 2.041 3.505 5.82 5.551 9.876 5.542h.073c14.641 0 27.171 9.009 32.369 21.783.42 1.033 1.438 1.696 2.554 1.696h.019c19.536 0 35.328 16.033 34.935 35.659-.076 3.813-.778 7.465-2.003 10.87h2.404c19.039 0 35.133-14.928 35.655-33.96.541-19.746-15.305-35.923-34.929-35.923z" fill="#fbc980"/></g><circle cx="308.548" cy="137.338" fill="#93d87b" r="23.956"/><g><path d="m472.83 81.065c4.961-10.159 1.748-22.706-7.49-29.224-5.398-3.809-11.734-4.986-17.631-3.911-3.591.655-7.16-1.444-8.334-4.9-2.061-6.07-6.617-11.326-13.255-14.072-9.573-3.96-20.84-.952-27.184 7.238-6.343 8.187-6.263 18.741-1.411 26.736.029.048.058.096.088.143 4.82 7.714 5.233 17.383.622 25.224l-65.332 111.107 29.915 17.59 65.334-111.111c4.664-7.932 13.448-12.206 22.635-11.7.376.021.752.028 1.126.021 8.536-.162 16.819-4.748 20.917-13.141z" fill="#e0dde2"/><g><path d="m386.386 135.947c-.254-7.145-2.949-13.361-7.122-18.129-2.8-3.2-7.457-4.031-11.229-2.068-.017.009-.034.018-.051.027-35.408 18.441-83.03 47.127-115.16 81.621h133.664c.532-21.05.37-48.204-.102-61.451z" fill="#dd9674"/></g><path d="m418.671 140.068c-.407-11.432-7.054-20.497-16.018-25.047-8.334-5.622-19.487-7.023-29.675-1.821-1.635.835-3.301 1.694-4.994 2.576 8.253 4.755 14.24 13.461 14.625 24.292.592 16.639.698 36.472-.452 57.329h36.062c1.149-20.857 1.044-40.689.452-57.329z" fill="#d88459"/></g><g><path d="m480.16 291.753c-2.378-12.258-7.395-24.042-14.97-34.466l-34.857-47.968h-174.333-203.269l-36.611 50.382c-7.296 10.041-12.151 21.378-14.494 33.176l8.318 5.839h471.264c-.259-2.34-.602-4.665-1.048-6.963z" fill="#f8636f"/><path d="m474.922 298.715h27.133l8.324-5.84c-2.342-11.798-7.203-23.134-14.499-33.175l-36.611-50.382h-36.406l36.611 50.382c8.493 11.689 13.687 25.132 15.448 39.015z" fill="#f84954"/><path d="m372.8 468.141c45.941-30.936 82.081-75.311 102.784-127.494 6.203-15.633 7.58-32.22 4.775-47.771h-478.732c-3.142 15.821-1.759 32.471 4.38 47.943 20.146 50.779 55.314 93.961 100.02 124.065 19.362 13.038 42.231 19.888 65.574 19.888h164.022c13.183-3.373 25.773-8.952 37.177-16.631z" fill="#fa8084"/><path d="m510.373 292.876h-36.397c3.141 15.821 1.75 32.472-4.388 47.943-20.146 50.779-55.314 93.961-100.02 124.065-19.362 13.038-42.231 19.888-65.574 19.888h36.406c23.343 0 46.212-6.85 65.574-19.888 35.205-23.707 64.489-55.528 85.187-92.778l-2.973-3.139c1.932-3.519 4.652-9.2 6.424-12.809l7.701-6.541c1.275-2.907 2.506-5.839 3.68-8.798 6.139-15.471 7.522-32.121 4.38-47.943z" fill="#f8636f"/><g><path d="m458.332 198.943v-17.128l-4.98-6.642h-408.671c-12.274 0-22.224 9.95-22.224 22.224 0 12.274 9.95 22.224 22.224 22.224h399.528c8.263-3.24 14.123-11.266 14.123-20.678z" fill="#fa8084"/></g><path d="m467.319 175.173h-13.967v22.225c0 12.274-9.95 22.224-22.224 22.224h36.191c12.274 0 22.224-9.95 22.224-22.224 0-12.275-9.95-22.225-22.224-22.225z" fill="#f8636f"/></g></g><path d="m144.027 142.641c-17.967 0-32.532 14.565-32.532 32.532h65.065c-.001-17.967-14.566-32.532-32.533-32.532z" fill="#93d87b"/><g><path d="m237.773 132.741c-4.268 0-7.728-3.46-7.728-7.728 0-12.56 10.218-22.778 22.778-22.778 4.268 0 7.728 3.46 7.728 7.728s-3.46 7.728-7.728 7.728c-4.038 0-7.323 3.285-7.323 7.323 0 4.267-3.46 7.727-7.727 7.727z" fill="#d58259"/></g></g></g></g><path d="m440.751 393.403c2.567 0 5.134-.36 7.634-1.074 5.085-7.592 9.814-15.442 14.141-23.541l-16.323 7.894c-3.465 1.675-7.44 1.675-10.905 0l-43.955-21.258c-7.742-3.744-16.622-3.744-24.364 0l-43.951 21.257c-3.466 1.676-7.441 1.676-10.906 0l-43.95-21.257c-7.742-3.744-16.623-3.744-24.364.001l-43.946 21.256c-3.465 1.675-7.441 1.676-10.906 0l-43.949-21.256c-7.742-3.744-16.622-3.744-24.364 0l-43.949 21.257c-3.465 1.675-7.441 1.676-10.906 0l-47.624-23.035c-.096-.046-.193-.091-.29-.133l-8.006-3.471c3.325 7.544 6.991 14.904 10.97 22.066l38.221 18.486c7.741 3.745 16.622 3.745 24.365 0l43.949-21.256c3.466-1.676 7.442-1.676 10.906 0l43.949 21.256c7.741 3.745 16.622 3.745 24.365 0l43.946-21.256c3.466-1.676 7.441-1.676 10.906 0l43.95 21.257c7.743 3.745 16.623 3.744 24.364 0l43.952-21.257c3.465-1.676 7.44-1.676 10.905 0l43.955 21.258c3.87 1.871 8.025 2.806 12.18 2.806z" fill="#f8636f"/><path d="m454.427 372.706c-3.967 7.097-8.251 13.992-12.825 20.674 3.87-.119 7.724-1.04 11.33-2.783l38.23-18.489c4.055-7.297 7.782-14.801 11.158-22.496l-8.482 4.034z" fill="#f84954"/></g></svg>