<svg height="512" viewBox="0 0 58 45" width="512" xmlns="http://www.w3.org/2000/svg"><g id="Page-1" fill="none" fill-rule="evenodd"><g id="007---Poppadom-and-Dips" transform="translate(-1)"><path id="Path" d="m59 22.33c0 8.13-5.99 15.21-14.85 18.92-.0348573-.4183511-.2031147-.8144572-.48-1.13l-30.41-35.47c5.1738702-2.66674078 10.9195488-4.03279818 16.74-3.98 16.02 0 29 9.7 29 21.66z" fill="#7f8c8d"/><path id="Path" d="m55 22.33c0 6.41-5.1 12.45-13.23 15.57l-25.83-30.12c3.0785392-1.48800781 6.3840345-2.45126563 9.78-2.85-.4560467.59478721-.7084992 1.32058813-.72 2.07 0 2.76 3.58 5 8 5s8-2.24 8-5c-.0013071-.18440652-.018032-.36838083-.05-.55 8.31 2.88 14.05 8.91 14.05 15.88z" fill="#95a5a5"/><path id="Path" d="m44.15 41.25c.0730904.9846173-.5724986 1.8791589-1.53 2.12-4.0057942.9946459-8.1415615 1.3623446-12.26 1.09-17-1.08-30.13-12.25-29.33-24.95.39-6.14 3.97-11.52 9.49-15.31.8422345-.58079313 1.9874322-.42954061 2.65.35l.09.1 2.68 3.13 25.83 30.12 1.9 2.22c.2768853.3155428.4451427.7116489.48 1.13z" fill="#f9eab0"/><g fill="#e4c05c"><path id="Path" d="m5.028 20.76h-.063c-.55116023-.0342825-.97019869-.5088346-.936-1.06.28-4.426 2.656-8.655 6.691-11.911.2771935-.23221752.6581597-.29669706.996332-.16863181.3381722.12806526.5808619.42872222.6347005.78630101.0538386.3575788-.0895621.7163672-.3750325.9383308-3.646 2.942-5.7 6.566-5.951 10.481-.03473883.525201-.47065156.9335686-.997.934z"/><path id="Path" d="m30.616 41.463h-.064c-7.1514702-.31288-14.0151655-2.9059951-19.587-7.4-.420841-.3589851-.4709851-.991159-.112-1.412s.991159-.4709851 1.412-.112c5.2427612 4.216624 11.6970314 6.6453415 18.419 6.931.5522847.017397.9858969.4792153.9685 1.0315-.017397.5522847-.4792153.985897-1.0315.9685z"/><path id="Path" d="m25.729 36.99c-.0895659.0002036-.1787344-.0119098-.265-.036-8.2-2.249-14.218-6.589-16.511-11.906-1.382035-3.0204251-1.26388854-6.5148198.319-9.435.25929769-.4876674.8648326-.6727977 1.3525-.4135s.6727977.8648326.4135 1.3525c-1.28758935 2.3852188-1.37943473 5.2368698-.248 7.7 2.021 4.686 7.7 8.712 15.2 10.769.4839388.1315129.7956269.6011318.728851 1.0981563-.0667758.4970246-.4913616.8677242-.992851.8668437z"/><path id="Path" d="m18.619 29.577c-.1950791.0000528-.3859139-.0569543-.549-.164-2.349493-1.4176075-4.2398283-3.4832954-5.444-5.949-.978-2.267-1.293-5.668 2.76-8.993.2761663-.226685.6522895-.2888177.9866877-.1629932.3343981.1258246.5762681.4204905.6345.7730001.0582318.3525095-.0760214.7093081-.3521877.9359931-2.516 2.065-3.233 4.241-2.193 6.655 1.0518979 2.1056596 2.6858845 3.8652841 4.708 5.07.3688976.2430966.5345591.699458.4075049 1.1225876-.1270541.4231295-.5167117.712744-.9585049.7124124z"/><circle id="Oval" cx="6" cy="26" r="1"/><circle id="Oval" cx="13" cy="12" r="1"/><circle id="Oval" cx="24" cy="31" r="1"/><circle id="Oval" cx="30" cy="37" r="1"/><circle id="Oval" cx="19" cy="21" r="1"/></g><path id="Path" d="m41 7.22v5c0 2.76-3.577 5-8 5s-8-2.24-8-5v-5" fill="#2980ba"/><path id="Path" d="m41 7c0 2.76-3.58 5-8 5s-8-2.24-8-5c.0115008-.74941187.2639533-1.47521279.72-2.07 1.25-1.73 4.04-2.93 7.28-2.93 4.12 0 7.51 1.95 7.95 4.45.031968.18161917.0486929.36559348.05.55z" fill="#f0c419"/><circle id="Oval" cx="33" cy="5" fill="#f29c1f" r="1"/><circle id="Oval" cx="30" cy="7" fill="#f29c1f" r="1"/><circle id="Oval" cx="36" cy="7" fill="#f29c1f" r="1"/><path id="Path" d="m51 19.025v5c0 2.76-3.577 5-8 5s-8-2.24-8-5v-5" fill="#2980ba"/><path id="Path" d="m51 18.805c0 2.76-3.58 5-8 5s-8-2.24-8-5c.0115008-.7494119.2639533-1.4752128.72-2.07 1.25-1.73 4.04-2.93 7.28-2.93 4.12 0 7.51 1.95 7.95 4.45.031968.1816192.0486929.3655935.05.55z" fill="#cb8252"/><circle id="Oval" cx="43" cy="19.805" fill="#805333" r="1"/><circle id="Oval" cx="40" cy="17.805" fill="#805333" r="1"/><circle id="Oval" cx="46" cy="17.805" fill="#805333" r="1"/></g></g></svg>