<svg id="Capa_1" enable-background="new 0 0 497 497" height="512" viewBox="0 0 497 497" width="512" xmlns="http://www.w3.org/2000/svg"><g><path d="m497 248.5c0 64.142-24.301 122.608-64.199 166.693-.83.917-1.849 1.749-2.692 2.653-45.363 48.653-109.842 75.527-181.609 75.527-137.243 0-244.447-107.63-244.447-244.872 0-70.83 25.763-134.585 73.309-179.851 1.363-1.297 2.557-2.732 3.949-3.999 44.142-40.167 102.806-64.651 167.189-64.651 137.243 0 248.5 111.257 248.5 248.5z" fill="#a36b5b"/><path d="m465.755 248.5c0 28.031-25.811 50.73-35.919 75.106-3.506 8.455-5.637 17.911-7.633 27.465 0 0-.681 1.584-.852 2.408-3.772 18.194-8.666 34.198-20.787 46.319-19.043 19.043-52.454 16.075-77.723 26.553-24.375 10.108-46.31 36.383-74.341 36.383s-50.412-23.722-74.787-33.83c-8.018-3.325-17.505-6.899-26.553-8.809l-34.34-40.596-35.982-27.926c-2.074-9.977-4.15-19.293-7.809-28.116-10.108-24.375-33.57-46.927-33.57-74.957 0-25.31 17.025-46.2 28.551-67.975.258-.487.564-1.536.564-1.536.944-1.857 1.814-3.721 2.591-5.595 10.478-25.269 8.671-59.474 27.714-78.517s53.248-17.236 78.517-27.714c24.375-10.108 47.075-35.919 75.106-35.919s50.73 25.811 75.106 35.919c7.749 3.213 17.39 5.604 26.124 7.462l21.48 47.002 51.004 24.559c1.931 9.175 4.252 19.08 7.623 27.208 10.105 24.376 35.916 47.075 35.916 75.106z" fill="#fff0af"/><path d="m422.203 351.071c-3.96 19-7.403 38.379-20.083 51.049-19.04 19.05-53.25 17.24-78.51 27.72-24.38 10.1-47.08 35.92-75.11 35.92s-50.73-25.82-75.11-35.92c-8.01-3.33-17.92-5.68-26.97-7.59l-33.6-42.75-37.85-27.78c-2.07-9.97-4.15-19.29-7.81-28.11-10.1-24.38-35.92-47.08-35.92-75.11 0-25.89 22.043-47.23 33.353-69.55-2.35 12.44-3.593 25.28-3.593 38.41 0 113.41 91.94 205.35 205.36 205.35 62.34 0 118.193-27.779 155.843-71.639z" fill="#f6d190"/><g fill="#f6d190"><g><circle cx="430.576" cy="260.299" r="7.5"/><circle cx="401.634" cy="255.188" r="7.5"/><circle cx="407.287" cy="283.588" r="7.5"/></g><g><circle cx="115.076" cy="221.108" r="7.5"/><circle cx="86.134" cy="215.996" r="7.5"/><circle cx="91.787" cy="244.397" r="7.5"/></g></g><g><g><g><path d="m350.283 293.241c-1.919 0-3.839-.732-5.304-2.197l-40.065-40.065c-2.929-2.929-2.929-7.678 0-10.606 2.93-2.929 7.678-2.929 10.607 0l40.065 40.065c2.929 2.929 2.929 7.678 0 10.606-1.464 1.464-3.384 2.197-5.303 2.197z" fill="#f6d190"/></g><g><path d="m334.458 390.553c-1.919 0-3.839-.732-5.304-2.197l-23.234-23.234c-2.929-2.929-2.929-7.678 0-10.606 2.93-2.929 7.678-2.929 10.607 0l23.234 23.234c2.929 2.929 2.929 7.678 0 10.606-1.464 1.464-3.384 2.197-5.303 2.197z" fill="#f6d190"/></g><g><path d="m341.178 340.704c-1.919 0-3.839-.732-5.304-2.197l-59.244-59.244c-2.929-2.929-2.929-7.678 0-10.606 2.93-2.929 7.678-2.929 10.607 0l59.244 59.244c2.929 2.929 2.929 7.678 0 10.606-1.464 1.465-3.384 2.197-5.303 2.197z" fill="#f6d190"/></g></g><g><path d="m246.005 188.963c-1.919 0-3.839-.732-5.303-2.197l-35.319-35.319c-2.929-2.929-2.929-7.678 0-10.606 2.929-2.929 7.678-2.929 10.606 0l35.319 35.319c2.929 2.929 2.929 7.678 0 10.606-1.464 1.464-3.383 2.197-5.303 2.197z" fill="#f6d190"/></g><g><path d="m286.231 342.327c-1.919 0-3.839-.732-5.304-2.197l-154.751-154.753c-2.929-2.929-2.929-7.678 0-10.606 2.929-2.929 7.678-2.929 10.606 0l154.753 154.752c2.929 2.929 2.929 7.678 0 10.606-1.465 1.465-3.385 2.198-5.304 2.198z" fill="#f6d190"/></g><g><path d="m162.317 161.843c-1.919 0-3.839-.732-5.303-2.197l-26.298-26.298c-2.929-2.929-2.929-7.678 0-10.606 2.929-2.929 7.678-2.929 10.606 0l26.298 26.298c2.929 2.929 2.929 7.678 0 10.606-1.464 1.464-3.384 2.197-5.303 2.197z" fill="#f6d190"/></g><g><path d="m220.542 220.069c-1.919 0-3.839-.732-5.303-2.197l-28.609-28.609c-2.929-2.929-2.929-7.678 0-10.606 2.929-2.929 7.678-2.929 10.606 0l28.609 28.609c2.929 2.929 2.929 7.678 0 10.606-1.464 1.464-3.383 2.197-5.303 2.197z" fill="#f6d190"/></g></g><path d="m432.99 414.99c-45.48 50.36-111.29 82.01-184.49 82.01-137.24 0-248.5-111.26-248.5-248.5 0-73.2 31.653-139.006 82.013-184.486-39.78 44.07-64.013 102.446-64.013 166.486 0 137.24 111.26 248.5 248.5 248.5 64.04 0 122.42-24.23 166.49-64.01z" fill="#8e5644"/><path d="m97.341 420.999-50.866 61.689c-8.577 10.402-24.25 11.154-33.783 1.62-2.761-2.761-4.659-6.036-5.71-9.505 0 0 .637-3.088.476-4.324-.981-7.509 3.271-14.385 9.617-19.617l60.581-49.548 10.142 7.867z" fill="#ffe07d"/><path d="m86 409.66-79.018 65.142c-.66-2.16-.982-4.402-.982-6.642 0-6.56 2.8-13.1 8.31-17.64l61.69-50.86 5.926 3.968z" fill="#ffd064"/><path d="m111.355 419.212 3.099-1.099 11.341-11.341-12.975-18.336-22.591-17.231-12.44 14.44c-3.811 3.811-3.811 9.99 0 13.801l19.766 19.766c3.81 3.811 9.989 3.811 13.8 0z" fill="#f8f7f7"/><path d="m114.453 418.113-3.099 3.097c-3.81 3.81-9.98 3.81-13.8 0l-21.76-21.76c-3.81-3.82-3.81-9.99 0-13.8l14.44-14.44 6.759 3.694 3.241 6.306-7.1 7.09c-2.34 2.35-2.34 6.15 0 8.49z" fill="#e8e8e8"/><path d="m400.696 77.038 50.612-61.56c5.178-6.28 12.046-9.703 19.484-8.809.97.117 3 .031 3 .031 3.842.973 7.488 2.964 10.516 5.991 9.533 9.533 8.782 25.206-1.62 33.783l-52.37 43.182-10.186 6.817z" fill="#ffe07d"/><path d="m419.229 78.569 11.088 11.088-9.317 7.683-13.798-6.861-7.542-14.479 50.86-61.69c5.86-7.1 15.012-9.709 23.272-7.609l-54.821 66.495c-1.31 1.59-1.199 3.916.258 5.373z" fill="#ffd064"/><path d="m405.829 124.852 10.944-9.058 4.439-4.439c3.811-3.811 3.811-9.99 0-13.801l-18.663-18.663-3.025-2.583c-3.811-3.811-9.99-3.811-13.801 0l-13.612 14.825z" fill="#f8f7f7"/><path d="m416.773 115.793-10.003 9.997-20.632-15.141-14.928-20.419 14.44-14.44c3.81-3.81 9.98-3.81 13.8 0l3.099 3.101-8.511 8.51c-1.562 1.562-1.562 4.095 0 5.657z" fill="#e8e8e8"/><path d="m416.801 163.425-253.038 253.038-.689.016c-7.622 7.622-19.463 7.303-27.085-.319l-52.617-54.675c-7.622-7.622-7.622-19.979 0-27.601l249.788-251.916c7.622-7.622 19.889-9.218 27.511-1.596l.849.169 55.282 55.282c7.621 7.622 7.621 19.98-.001 27.602z" fill="#ffe07d"/><path d="m97.508 344.552c-1.562 1.562-1.562 4.095 0 5.657l66.255 66.255-.343.337c-7.62 7.62-19.97 7.62-27.6 0l-55.62-55.621c-7.62-7.63-7.62-19.98 0-27.6l253.38-253.38c7.621-7.621 19.978-7.621 27.6 0l.339.341z" fill="#ffd064"/></g></svg>