<svg id="Layer_1" enable-background="new 0 0 512 512" viewBox="0 0 512 512" xmlns="http://www.w3.org/2000/svg" xmlns:xlink="http://www.w3.org/1999/xlink"><linearGradient id="lg1"><stop offset="0" stop-color="#fece9a"/><stop offset="1" stop-color="#f99c39"/></linearGradient><linearGradient id="SVGID_1_" gradientUnits="userSpaceOnUse" x1="36.79" x2="130.839" xlink:href="#lg1" y1="380.849" y2="380.849"/><linearGradient id="lg2"><stop offset="0" stop-color="#fafafa"/><stop offset="1" stop-color="#efeeee"/></linearGradient><linearGradient id="SVGID_2_" gradientUnits="userSpaceOnUse" x1="114.589" x2="193.766" xlink:href="#lg2" y1="79.474" y2="79.474"/><linearGradient id="SVGID_3_" gradientUnits="userSpaceOnUse" x1="27.886" x2="179.351" xlink:href="#lg1" y1="207" y2="207"/><linearGradient id="SVGID_4_" gradientUnits="userSpaceOnUse" x1="381.161" x2="475.21" xlink:href="#lg1" y1="380.849" y2="380.849"/><linearGradient id="SVGID_5_" gradientUnits="userSpaceOnUse" x1="318.234" x2="397.411" xlink:href="#lg2" y1="79.474" y2="79.474"/><linearGradient id="SVGID_6_" gradientUnits="userSpaceOnUse" x1="332.649" x2="484.114" xlink:href="#lg1" y1="207" y2="207"/><linearGradient id="SVGID_7_" gradientUnits="userSpaceOnUse" x1="90.894" x2="421.106" xlink:href="#lg1" y1="315.03" y2="315.03"/><path d="m129.11 386.759c-6.953 53.301-32.869 93.863-57.885 90.6s-39.66-49.117-32.706-102.418c6.953-53.301 32.869-93.864 57.885-90.602s39.659 49.118 32.706 102.42z" fill="url(#SVGID_1_)"/><path d="m129.042 70.256-14.052 52.769 38.458 10.242 14.053-52.768c11.399 1.569 22.443-5.559 25.48-16.964 3.288-12.346-4.054-25.02-16.401-28.308-6.507-1.732-13.106-.509-18.373 2.841-2.903-5.526-8.018-9.869-14.527-11.603-12.346-3.288-25.02 4.056-28.308 16.401-3.036 11.405 3.002 23.083 13.67 27.39z" fill="url(#SVGID_2_)"/><path d="m84.137 316.206c40.404 10.762 81.887-13.269 92.646-53.673 4.342-16.301 3.019-32.787-2.766-47.354 0 0-.012-.039-.04-.12-1.171-3.39-16.244-73.576-7.309-106.258l-25.489-6.788-.001-.001-25.491-6.788c-8.501 32.797-56.484 86.19-59.186 88.549-.066.055-.097.083-.097.083-12.263 9.761-21.609 23.406-25.951 39.707-10.759 40.406 13.28 81.883 53.684 92.643z" fill="url(#SVGID_3_)"/><path d="m382.89 386.759c6.953 53.301 32.87 93.863 57.886 90.6 25.015-3.263 39.659-49.117 32.706-102.418s-32.869-93.864-57.886-90.602c-25.016 3.263-39.658 49.118-32.706 102.42z" fill="url(#SVGID_4_)"/><path d="m382.958 70.256 14.052 52.769-38.458 10.242-14.053-52.768c-11.399 1.569-22.443-5.559-25.48-16.964-3.288-12.346 4.055-25.02 16.401-28.308 6.507-1.732 13.107-.509 18.372 2.841 2.903-5.526 8.018-9.869 14.527-11.603 12.345-3.288 25.02 4.056 28.308 16.401 3.036 11.405-3.001 23.083-13.669 27.39z" fill="url(#SVGID_5_)"/><path d="m427.863 316.206c-.001 0-.001 0-.001 0-40.402 10.762-81.886-13.269-92.644-53.673-4.342-16.301-3.02-32.787 2.765-47.354 0 0 .012-.039.041-.12 1.17-3.39 16.244-73.576 7.309-106.258l25.488-6.788.001-.001 25.491-6.788c8.5 32.797 56.484 86.19 59.186 88.549.066.055.096.083.096.083 12.263 9.761 21.609 23.406 25.951 39.707 10.761 40.406-13.278 81.883-53.683 92.643z" fill="url(#SVGID_6_)"/><path d="m413.477 336.308c-43.674-189.588-157.477-192.567-157.477-192.567s-113.803 2.979-157.478 192.567 112.463 151.87 157.478 135.988c45.016 15.882 201.152 53.6 157.477-135.988z" fill="url(#SVGID_7_)"/></svg>