<svg id="Layer_1" viewBox="0 0 64 64" xmlns="http://www.w3.org/2000/svg" xmlns:xlink="http://www.w3.org/1999/xlink" data-name="Layer 1"><linearGradient id="linear-gradient" gradientUnits="userSpaceOnUse" x1="60.26" x2="10.7" y1="5.44" y2="55"><stop offset="0" stop-color="#fbab00"/><stop offset="1" stop-color="#e4384f"/></linearGradient><path id="Food-Grilled_Fish" d="m59.69 5.14a1 1 0 0 0 -.83-.83 41.38 41.38 0 0 0 -17.78 1.84c-8.8-2.15-16.93 4.44-21.21 9.71-.74.93-3.23 3.36-.84 3.76l5-.17c-4.48 6.7-7.17 15.44-8 26.11-2.49-.85-7.7-2-11.66 1.58a1 1 0 0 0 .22 1.64l7.08 3.59 3.59 7.08a1 1 0 0 0 1.63.22c3.58-4 2.43-9.18 1.59-11.66 11.52-.9 23.52-4.32 31.83-12.84 1.49 1.52 1.9 3.83 2.33 5.83a1 1 0 0 0 1.69.56c5.76-5.9 4.15-13.71 3.11-17.71a38.89 38.89 0 0 0 2.25-18.71zm-5.23 17.18a1 1 0 0 1 -1.13.74h-.09a19 19 0 0 1 -5.19-2.18 17 17 0 0 1 -7.55-9.63 1 1 0 0 1 1.94-.48 15.29 15.29 0 0 0 6.51 8.32 17.32 17.32 0 0 0 4.79 2 1 1 0 0 1 .72 1.23zm-16.46 16.27a1 1 0 0 1 -1.41 0l-11.59-11.59a1 1 0 1 1 1.42-1.41l11.58 11.58a1 1 0 0 1 0 1.42zm6.44-6.44a1 1 0 0 1 -1.41 0l-11.59-11.61a1 1 0 0 1 1.41-1.41l11.6 11.6a1 1 0 0 1 0 1.42zm7.19-21.39a1.9 1.9 0 1 1 -1.9-1.9 1.9 1.9 0 0 1 1.91 1.9z" fill="url(#linear-gradient)" data-name="Food-Grilled Fish"/></svg>