<?xml version="1.0" encoding="iso-8859-1"?>
<!-- Generator: Adobe Illustrator 19.0.0, SVG Export Plug-In . SVG Version: 6.00 Build 0)  -->
<svg version="1.1" id="Capa_1" xmlns="http://www.w3.org/2000/svg" xmlns:xlink="http://www.w3.org/1999/xlink" x="0px" y="0px"
	 viewBox="0 0 512 512" style="enable-background:new 0 0 512 512;" xml:space="preserve">
<path style="fill:#89DF8F;" d="M430,247.287c0,30.152-24.624,54.596-55,54.596c-11.795,0-22.713-3.698-31.669-9.972
	c-7.736,6.232-17.592,9.972-28.331,9.972c-24.853,0-45-19.999-45-44.669c0-24.67,20.147-44.669,45-44.669
	c5.437,0,10.648,0.957,15.473,2.711c9.996-13.668,26.211-22.564,44.527-22.564C405.376,192.691,430,217.134,430,247.287z"/>
<path style="fill:#51D07C;" d="M430,247.287c0,30.152-24.624,54.596-55,54.596c-5.208,0-10.243-0.723-15.016-2.068
	c23.09-6.479,40.016-27.534,40.016-52.528c0-24.982-16.91-46.029-39.982-52.518c4.765-1.339,9.785-2.077,14.982-2.077
	C405.376,192.691,430,217.134,430,247.287z"/>
<path style="fill:#FFF1BA;" d="M322.151,160.4c-7.81,7.753-20.474,7.753-28.284,0l-42.426,42.115l-21.213-21.057l42.426-42.115
	c-7.811-7.753-7.81-20.323,0-28.076s20.474-7.753,28.284,0c4.23,4.199,6.148,9.809,5.797,15.303
	c5.535-0.349,11.187,1.556,15.416,5.754C329.962,140.076,329.962,152.647,322.151,160.4z"/>
<path style="fill:#FF8638;" d="M219.621,311.31c-27.248,27.048-71.371,27.135-98.728,0.264c-27.288-26.803-27.933-69.8-1.421-97.359
	c18.234-18.953,44.52-25.373,68.226-19.293l43.334-27.373c9.859-6.228,22.752-4.823,31.015,3.38l0,0
	c8.263,8.202,9.678,21.001,3.405,30.787l-27.576,43.015C243.873,267.771,237.799,293.266,219.621,311.31z"/>
<path style="fill:#FF9C41;" d="M225.452,192.539l-27.576,43.015c5.997,23.04-0.077,48.535-18.255,66.579
	c-12.426,12.335-28.363,19.044-44.617,20.165c-5.034-2.902-9.783-6.473-14.111-10.725c-27.288-26.803-27.933-69.8-1.421-97.359
	c18.234-18.953,44.521-25.373,68.226-19.293l39.748-25.108C230.468,177.088,229.917,185.573,225.452,192.539z"/>
<path style="fill:#FFD573;" d="M130,262.177c0,21.929-17.909,39.706-40,39.706s-40-17.777-40-39.706s17.909-39.706,40-39.706
	S130,240.248,130,262.177z M256,222.471c-22.091,0-40,17.777-40,39.706s17.909,39.706,40,39.706s40-17.777,40-39.706
	S278.091,222.471,256,222.471z M420,222.471c-22.091,0-40,17.777-40,39.706s17.909,39.706,40,39.706s40-17.777,40-39.706
	S442.091,222.471,420,222.471z"/>
<path style="fill:#FFB45A;" d="M512,406.111c0,8.223-6.716,14.89-15,14.89H15c-8.284,0-15-6.666-15-14.89s6.716-14.89,15-14.89h75
	c-19.429,0-35.617-13.753-39.238-31.985h410.476c-3.621,18.232-19.809,31.985-39.238,31.985h75
	C505.284,391.221,512,397.888,512,406.111z"/>
<path style="fill:#B04B42;" d="M512,286.993L512,286.993c0,8.223-6.666,14.89-14.89,14.89H14.89c-8.223,0-14.89-6.666-14.89-14.89
	l0,0c0-8.223,6.666-14.89,14.89-14.89h482.22C505.334,272.103,512,278.77,512,286.993z"/>
<path style="fill:#CE4D48;" d="M422,391.221H90c-22.091,0-40-17.909-40-40v-79.118h412v79.118
	C462,373.313,444.091,391.221,422,391.221z"/>
<path style="fill:#F15950;" d="M352,391.221H90c-22.091,0-40-17.777-40-39.706v-79.412h382v39.706
	C432,355.667,396.183,391.221,352,391.221z"/>
<path style="fill:#C97D5D;" d="M445.304,182.52c2.929,2.907,2.929,7.621,0,10.529c-1.465,1.454-3.385,2.181-5.304,2.181
	s-3.839-0.727-5.304-2.181l-10-9.927c-2.929-2.907-2.929-7.621,0-10.529c2.93-2.907,7.678-2.907,10.607,0L445.304,182.52z
	 M175.304,122.961c-2.93-2.907-7.678-2.907-10.607,0s-2.929,7.621,0,10.529l10,9.927c1.465,1.454,3.385,2.181,5.304,2.181
	s3.839-0.727,5.304-2.181c2.929-2.907,2.929-7.621,0-10.529L175.304,122.961z M430,115.817c1.919,0,3.839-0.727,5.304-2.181
	l10-9.927c2.929-2.907,2.929-7.621,0-10.529c-2.93-2.907-7.678-2.907-10.607,0l-10,9.927c-2.929,2.907-2.929,7.621,0,10.529
	C426.161,115.09,428.081,115.817,430,115.817z M114.696,152.741l-10,9.927c-2.929,2.907-2.929,7.621,0,10.529
	c1.465,1.454,3.385,2.181,5.304,2.181s3.839-0.727,5.304-2.181l10-9.927c2.929-2.907,2.929-7.621,0-10.529
	C122.374,149.833,117.626,149.833,114.696,152.741z M374.696,122.961l-10,9.927c-2.929,2.907-2.929,7.621,0,10.529
	c1.465,1.454,3.385,2.181,5.304,2.181s3.839-0.727,5.304-2.181l10-9.927c2.929-2.907,2.929-7.621,0-10.529
	C382.374,120.054,377.626,120.054,374.696,122.961z"/>
<g>
</g>
<g>
</g>
<g>
</g>
<g>
</g>
<g>
</g>
<g>
</g>
<g>
</g>
<g>
</g>
<g>
</g>
<g>
</g>
<g>
</g>
<g>
</g>
<g>
</g>
<g>
</g>
<g>
</g>
</svg>
