<svg id="Filloutline_expand" enable-background="new 0 0 503.89 380" height="512" viewBox="0 0 503.89 380" width="512" xmlns="http://www.w3.org/2000/svg"><g><g><path d="m71.64 66.14c-43.49-34.13-111.86 26.58-27.75 98.05 8.757-6.699 25.33-2.984 1.35-53.3-15.47-12.77-13.93-25.54-13.46-27.96l-.17-.22c8.18-6.26 20.36-1.75 23.07 4.21l.22.13c9.232.529 15.434-5.563 16.96-20.68z" fill="#524956"/><path d="m43.89 124v40.19 53.42c0 61.91 38.98 117.25 97.42 137.69 37.39 13.08 82.29 20.7 130.58 20.7s93.19-7.62 130.58-20.7c58.44-20.44 97.42-75.78 97.42-137.69v-93.61z" fill="#5d5560"/><path d="m271.89 4c125.92 0 228 53.73 228 120s-102.08 120-228 120-228-53.73-228-120c0-4.43.46-8.8 1.35-13.11 1.69-8.23 4.97-16.2 9.66-23.84 4.44-7.22 10.13-14.14 16.96-20.68 38.74-37.17 113.79-62.37 200.03-62.37z" fill="#655f68"/><path d="m475.89 122.14c0 6.22-1.12 12.31-3.26 18.22-1.16-2.4-2.33-4.79-3.27-7.22-2.91-7.57-3.69-16.74-9.11-23.67-4.97-6.36-13.81-9.75-20.65-15.44-6.25-5.2-10.9-13.25-18.53-17.8-7.06-4.2-16.54-4.66-24.64-8.22-7.59-3.34-14.15-10.01-22.54-12.72-7.94-2.57-17.3-1.1-25.86-3.06-8.18-1.87-15.87-7.27-24.53-8.54-8.34-1.22-17.32 1.73-26.03 1.11-8.43-.6-16.87-4.8-25.58-4.8s-17.15 4.2-25.58 4.8c-8.71.62-17.69-2.33-26.03-1.11-8.66 1.27-16.35 6.67-24.53 8.54-8.56 1.96-17.92.49-25.86 3.05-8.38 2.72-14.95 9.39-22.53 12.72-8.1 3.57-17.58 4.03-24.64 8.23-7.64 4.55-12.28 12.59-18.54 17.8-6.83 5.69-15.68 9.08-20.65 15.44-5.42 6.93-6.19 16.09-9.11 23.67-.94 2.43-2.11 4.82-3.27 7.21-2.14-5.91-3.26-12-3.26-18.21 0-56.26 91.33-101.87 204-101.87s204 45.61 204 101.87z" fill="#5d5560"/><path d="m469.36 133.14c.94 2.43 2.11 4.82 3.27 7.22-17.2 47.56-100.53 83.64-200.74 83.64-100.22 0-183.56-36.09-200.74-83.65 1.16-2.39 2.33-4.78 3.27-7.21 2.92-7.58 3.69-16.74 9.11-23.67 4.97-6.36 13.82-9.75 20.65-15.44 6.26-5.21 10.9-13.25 18.54-17.8 7.06-4.2 16.54-4.66 24.64-8.23 7.58-3.33 14.15-10 22.53-12.72 7.94-2.56 17.3-1.09 25.86-3.05 8.18-1.87 15.87-7.27 24.53-8.54 8.34-1.22 17.32 1.73 26.03 1.11 8.43-.6 16.87-4.8 25.58-4.8s17.15 4.2 25.58 4.8c8.71.62 17.69-2.33 26.03-1.11 8.66 1.27 16.35 6.67 24.53 8.54 8.56 1.96 17.92.49 25.86 3.06 8.39 2.71 14.95 9.38 22.54 12.72 8.1 3.56 17.58 4.02 24.64 8.22 7.63 4.55 12.28 12.6 18.53 17.8 6.84 5.69 15.68 9.08 20.65 15.44 5.42 6.93 6.2 16.1 9.11 23.67z" fill="#f1c27d"/><g fill="#ffdbac"><path d="m451.75 127.59c2.22 7.94-2.98 11.15-6.56 12.39-1.89.66-3.52 1.94-4.57 3.65-4.45 7.24-9.93 7.32-13.7 6.15-2.49-.77-3.97-3.3-3.43-5.84.31-1.44.59-3.07.82-4.54.32-2.1-1.59-3.87-3.66-3.37l-6.6 1.58c-2.15.51-4.4-.45-5.5-2.38-.96-1.69-1.5-3.72-1.8-5.52-.41-2.51 1.16-4.96 3.62-5.6 8.66-2.25 13.12-6.3 15.39-8.87 1.61-1.83 4.31-2.24 6.38-.94 6.83 4.29 12.79 7.38 15.97 8.95 1.77.88 3.11 2.44 3.64 4.34z"/><path d="m375.57 146.74c1.46 3.08-.36 6.77-3.72 7.41-14.42 2.73-15.56-6.51-26-8.7-4.02-.85-8.13 3.49-11.41 5.97-10.19 7.7-27.02 2.55-27.02 2.55-7.03-1.86-10.68 3.05-12.21 6.07-.79 1.57-2.06 2.86-3.58 3.76-9.51 5.68-16.97 8.82-16.97 8.82-30.02 14.07-42.03-.18-15.8-12.89 8.51-3.25 17.85-9.73 21.85-12.66 1.11-.81 1.5-2.27 1.02-3.57-1.25-3.37-.48-5.88.62-7.55.88-1.33.46-3.08-.79-4.07-4.55-3.61.59-10.64.59-10.64 12.18-22.02 23.96-17.65 29.41-13.7 1.74 1.25 4.15 1.08 5.59-.51 1.93-2.12 5.03-4.63 9.46-5.62 1.61-.35 3.28-.3 4.89.06l19.76 4.52c2.65.6 3.35 4.06 1.14 5.63-1.69 1.19-3.93 2.67-6.91 4.46-2.95 1.76-2.65 6.13.51 7.47 9.39 3.96 24.13 11.74 29.57 23.19zm-54.42-18.1c.83-2.34-.97-4.77-3.67-4.96l-6.54-.46c-1.88-.14-3.63.88-4.27 2.49l-3.27 8.12c-.91 2.26.69 4.71 3.31 5.07l6.77.94c2.04.28 4.01-.82 4.64-2.6z"/><path d="m374.75 75.08c1.33 6.83-9.27 12.06-19.25 8.38-12.23-3.35-21.86-4.16-20.9-11.17 1.91-6.85 11.4-5.59 20.9-5.59 10.63 0 18.37 3.84 19.25 8.38z"/><path d="m365 180.53c5.62 3.21 5.35 11.5-.56 14.15-13.15 5.9-31.84-1.53-44.81 6.01 0 0-6.03 4.56-10.97.48-3.56-2.95-3.67-8.32-.57-11.74 3.01-3.3 8.61-6.89 18.9-7.26 4.28-.15 8.47-1.18 12.35-2.97 5.55-2.56 14.94-4.81 25.66 1.33z"/></g><path d="m317.48 123.68c2.7.19 4.5 2.62 3.67 4.96l-3.03 8.6c-.63 1.78-2.6 2.88-4.64 2.6l-6.77-.94c-2.62-.36-4.22-2.81-3.31-5.07l3.27-8.12c.64-1.61 2.39-2.63 4.27-2.49z" fill="#f1c27d"/><path d="m258.55 82.68c14.26-1.82 19.35 3.19 17.25 9.72-3.1 6.19-12.13 2.02-24.04 6.77-16.02 6.38-22.02-1.96-22.02-6.77 0-4.38 1.06-12.51 17.72-9.81 3.67.6 7.4.56 11.09.09z" fill="#ffdbac"/><path d="m222.44 116.29c.71 1.45.15 3.2-1.28 3.96-3.74 2-11.1 5.63-18.58 7.63-2.11.56-4.4-.03-5.92-1.61-2.67-2.76-7.96-6.66-15.65-5.18-43.91 8.45-44.15-.7-39.12-7 1.53-1.92 1.43-4.73-.24-6.53-8.23-8.89 1.62-7.84 6.13-20.12.7-1.9 2.63-3.07 4.66-3.04 3.88.05 10.01-.13 15.7-1.36 2.5-.54 4.79 1.44 4.77 4-.02 4.62 2.18 8.62 14.27-3.35 1.05-1.03 2.58-1.42 3.99-1l7.02 2.13c2.65.81 3.71 3.99 2.06 6.21-1.64 2.2-3.49 4.9-4.7 7.36-.85 1.74.2 3.79 2.09 4.22 2.47.58 5.61 1.92 6.82 5.09.59 1.53 2.24 2.36 3.79 1.82 1.97-.67 4.55-1.53 6.94-2.26 1.4-.43 2.91.23 3.56 1.55z" fill="#ffdbac"/><path d="m188.76 143.68c1.62 3.66.53 8.72-11.51 13.66 0 0-32.95 12.09-66.86 6.16-5.57-.97-9.45-6.06-8.91-11.69.53-5.46.11-9.6-3.03-15.52-5.5-7.83 4.2-16.24 11.95-11.56 2.23 1.34 4.21 2.04 6.88 1.21 4.14-1.29 10.32-.43 9.63 7.68-.23 2.72 1.36 5.26 4 5.95 7.33 1.89 22.7 4.01 48.73-.5 3.73-.65 7.59 1.15 9.12 4.61z" fill="#ffdbac"/><path d="m271.89 330c177.27 0 217.21-139.98 225.77-189.16 1.47-5.5 2.23-11.12 2.23-16.84v93.61c0 61.91-38.98 117.25-97.42 137.69-37.39 13.08-82.29 20.7-130.58 20.7s-93.19-7.62-130.58-20.7c-51.19-17.9-87.45-62.59-95.65-115.01 1.04 2.71 35.59 89.71 226.23 89.71z" fill="#524956"/><path d="m25.583 90.979c-2.161-.446-4.279.941-4.729 3.104-.593 2.858-.894 6.057-.894 9.506 0 2.209 1.791 4 4 4s4-1.791 4-4c0-2.904.245-5.556.728-7.881.448-2.162-.941-4.279-3.105-4.729z" fill="#504256"/></g><g fill="#3a322b"><path d="m434.973 35.607c-43.627-22.961-101.545-35.607-163.083-35.607s-119.456 12.646-163.083 35.607c-14.641 7.706-27.099 16.284-37.244 25.52-22.216-15.454-48.403-8.711-61.56 7.396-15.884 19.446-17.432 56.539 29.887 97.497v51.594c0 63.674 40.226 120.523 100.097 141.462 39.137 13.689 84.749 20.924 131.903 20.924s92.766-7.235 131.903-20.924c59.871-20.938 100.097-77.788 100.097-141.462v-93.614c0-33.61-24.475-65.002-68.917-88.393zm-322.44 7.08c42.5-22.369 99.093-34.687 159.357-34.687s116.857 12.318 159.357 34.687c41.686 21.94 64.643 50.817 64.643 81.313s-22.957 59.373-64.643 81.313c-42.5 22.369-99.093 34.687-159.357 34.687s-116.857-12.318-159.357-34.687c-41.686-21.94-64.643-50.817-64.643-81.313s22.957-59.373 64.643-81.313zm-76.991 42.247c.7-.367 1.445-.655 2.234-.86 4.893-1.27 10.044.853 12.307 3.178-2.999 5.24-5.341 10.605-7.026 16.067-7.341-8.097-7.764-15.298-7.515-18.385zm-19.344-11.35c10.541-12.905 31.365-18.418 49.49-6.77-4.265 4.403-8.02 8.939-11.253 13.588-4.777-3.916-12.25-5.74-18.671-4.072-4.751 1.236-15.804 6.366-15.804 27.263 0 2.209 1.791 4 4 4s4-1.791 4-4c0-3.321.326-6.267.95-8.813 1.638 5.208 5.073 11.432 11.974 17.633-.651 3.827-.994 7.691-.994 11.587v31.268c-37.686-35.228-36.724-65.73-23.692-81.684zm479.692 144.03c0 60.278-38.072 114.093-94.737 133.911-38.299 13.395-82.998 20.475-129.263 20.475s-90.964-7.08-129.263-20.475c-56.665-19.818-94.737-73.632-94.737-133.911v-60.973c10.542 20.997 31.283 40.154 60.917 55.751 43.627 22.962 101.545 35.608 163.083 35.608s119.456-12.646 163.083-35.607c29.634-15.597 50.375-34.754 60.917-55.751z"/><path d="m125.853 197.743c39.075 19.512 90.938 30.257 146.037 30.257s106.962-10.745 146.037-30.257c39.957-19.952 61.963-46.804 61.963-75.607 0-28.805-22.006-55.655-61.963-75.607-39.075-19.512-90.938-30.257-146.037-30.257s-106.962 10.745-146.037 30.256c-39.957 19.952-61.963 46.803-61.963 75.608 0 28.803 22.006 55.655 61.963 75.607zm288.5-7.157c-37.986 18.968-88.581 29.414-142.463 29.414s-104.477-10.446-142.463-29.414c-28.058-14.01-46.573-31.328-53.939-50.015.94-1.949 1.871-3.949 2.661-5.998 1.033-2.681 1.806-5.506 2.553-8.239 1.461-5.341 2.84-10.385 5.981-14.404 2.56-3.275 6.604-5.806 10.887-8.484 3.071-1.922 6.247-3.908 9.173-6.344 2.761-2.297 5.184-5.044 7.528-7.701 3.331-3.775 6.478-7.342 10.492-9.732 3.435-2.045 7.761-3.133 12.341-4.285 3.92-.986 7.973-2.006 11.865-3.718 3.639-1.6 6.98-3.844 10.213-6.014 3.986-2.677 7.752-5.205 11.942-6.561 3.787-1.226 8.142-1.414 12.751-1.613 4.176-.181 8.493-.368 12.769-1.346 4.052-.926 7.892-2.598 11.604-4.215 4.312-1.877 8.384-3.65 12.611-4.268 3.951-.578 8.243-.074 12.787.456 4.194.49 8.529.994 12.944.686 4.231-.301 8.353-1.398 12.338-2.46 4.502-1.198 8.754-2.331 12.96-2.331s8.458 1.133 12.96 2.332c3.984 1.061 8.105 2.158 12.336 2.459 4.418.31 8.752-.195 12.946-.686 4.545-.531 8.838-1.035 12.788-.456 4.229.618 8.303 2.392 12.615 4.269 3.713 1.617 7.552 3.288 11.602 4.215 4.276.978 8.594 1.165 12.77 1.346 4.61.199 8.966.389 12.754 1.614 4.19 1.355 7.956 3.884 11.943 6.561 3.231 2.17 6.573 4.414 10.212 6.014 3.893 1.713 7.945 2.732 11.865 3.719 4.58 1.152 8.905 2.24 12.34 4.286 4.017 2.391 7.162 5.957 10.493 9.732 2.344 2.657 4.767 5.403 7.525 7.7 2.927 2.437 6.104 4.424 9.176 6.346 4.281 2.678 8.325 5.208 10.884 8.482 3.141 4.021 4.521 9.064 5.98 14.405.747 2.732 1.52 5.558 2.552 8.238.79 2.049 1.72 4.047 2.66 5.996-7.363 18.686-25.879 36.004-53.936 50.014zm-284.926-136.9c37.986-18.968 88.581-29.414 142.463-29.414s104.477 10.446 142.463 29.414c37.104 18.526 57.537 42.836 57.537 68.45 0 1.686-.094 3.365-.27 5.038-.277-.961-.549-1.939-.824-2.945-1.604-5.867-3.263-11.935-7.393-17.222-3.427-4.385-8.266-7.411-12.945-10.339-2.847-1.781-5.79-3.622-8.301-5.712-2.285-1.902-4.402-4.303-6.645-6.844-3.592-4.072-7.307-8.282-12.399-11.314-4.439-2.644-9.544-3.929-14.48-5.17-3.599-.906-7.32-1.842-10.597-3.283-2.989-1.315-5.896-3.267-8.974-5.333-4.269-2.866-8.683-5.83-13.939-7.53-4.82-1.561-9.93-1.781-14.871-1.995-3.993-.174-7.766-.337-11.332-1.152-3.323-.76-6.659-2.213-10.191-3.75-4.604-2.005-9.365-4.078-14.652-4.851-4.99-.729-10.014-.141-14.874.427-4.004.469-7.79.913-11.45.65-3.473-.246-7.053-1.2-10.844-2.209-4.801-1.28-9.766-2.602-15.019-2.602s-10.218 1.322-15.019 2.601c-3.791 1.01-7.372 1.964-10.846 2.21-3.662.261-7.444-.182-11.449-.65-4.858-.568-9.881-1.156-14.872-.427-5.285.772-10.045 2.845-14.648 4.849-3.533 1.538-6.869 2.991-10.194 3.751-3.565.815-7.338.979-11.331 1.151-4.94.215-10.049.436-14.868 1.995-5.256 1.7-9.67 4.664-13.938 7.53-3.078 2.066-5.985 4.018-8.975 5.333-3.276 1.44-6.998 2.377-10.597 3.282-4.937 1.241-10.041 2.525-14.481 5.169-5.092 3.032-8.807 7.242-12.398 11.313-2.242 2.542-4.36 4.942-6.646 6.846-2.51 2.089-5.453 3.93-8.299 5.71-4.681 2.928-9.521 5.955-12.947 10.341-4.131 5.285-5.79 11.353-7.395 17.22-.276 1.009-.548 1.989-.825 2.952-.176-1.673-.27-3.354-.27-5.04-.002-25.615 20.432-49.924 57.535-68.45z"/><path d="m178.961 135.128c-25.67 4.446-40.496 2.263-47.049.566-.784-.203-1.077-1.038-1.018-1.729.486-5.674-1.717-8.72-3.651-10.275-2.83-2.276-6.998-2.862-11.152-1.57-1.058.328-1.795.286-3.627-.819-5.391-3.249-12.139-2.322-16.408 2.26-3.902 4.185-4.296 9.969-1.034 14.804 2.662 5.089 2.924 8.409 2.477 13.065-.736 7.653 4.623 14.687 12.199 16.012 6.983 1.222 13.898 1.712 20.503 1.711 26.101 0 47.324-7.654 48.431-8.061.047-.018.094-.035.14-.055 7.602-3.119 12.128-6.701 13.836-10.951 1.047-2.604.98-5.38-.191-8.027-2.247-5.064-7.776-7.914-13.456-6.931zm6.223 11.974c-.383.953-2.063 3.489-9.37 6.501-1.612.574-33.016 11.507-64.738 5.957-3.486-.609-5.952-3.845-5.614-7.365.564-5.867.179-10.888-3.478-17.778-.078-.147-.165-.289-.261-.425-1.583-2.253-.773-3.949.184-4.977.868-.931 2.235-1.631 3.753-1.631.864 0 1.777.227 2.674.768 2.575 1.553 5.794 2.955 10.135 1.606 1.485-.462 3.068-.393 3.762.166.584.47.837 1.693.694 3.356-.407 4.734 2.53 9.007 6.983 10.158 8.768 2.272 24.628 4.039 50.419-.428 2.021-.347 4.031.612 4.774 2.288.373.843.251 1.385.083 1.804z"/><path d="m222.339 107.038c-1.522-3.092-5.021-4.608-8.316-3.604-2.141.651-4.421 1.407-6.181 2.005-1.462-3.023-4.291-5.256-8.11-6.405.903-1.62 2.173-3.536 3.723-5.613 1.552-2.078 1.994-4.792 1.183-7.26-.813-2.477-2.788-4.408-5.283-5.165l-7.023-2.13c-2.815-.852-5.864-.09-7.961 1.986-3.816 3.778-6.157 5.441-7.455 6.173.003-2.464-1.082-4.759-2.982-6.302-1.87-1.519-4.289-2.097-6.64-1.588-5.243 1.134-10.932 1.316-14.802 1.266-.039 0-.077 0-.117 0-3.754 0-7.1 2.263-8.349 5.66-1.498 4.078-3.651 6.361-5.552 8.376-3.834 4.066-6.701 8.337.238 15.837.327.354.35.947.05 1.322-4.384 5.495-3.11 9.504-1.961 11.405 2.689 4.447 10.232 8.7 44.964 2.016 5.655-1.082 9.655 1.596 12.016 4.037 1.898 1.966 4.51 3.034 7.202 3.034.876 0 1.761-.112 2.632-.345 7.867-2.099 15.554-5.889 19.434-7.96 3.348-1.786 4.655-5.855 2.977-9.266zm-20.786 16.975c-.737.197-1.527-.009-2.021-.518-2.601-2.692-7.746-6.734-15.173-6.734-1.3 0-2.669.124-4.106.4-.001 0-.001 0-.001 0-30.309 5.83-35.866 2.332-36.538 1.76.053-.321.344-1.136 1.301-2.335 2.755-3.453 2.569-8.503-.433-11.746-1.574-1.702-1.979-2.549-2.079-2.829.253-.455 1.133-1.389 1.79-2.085 2.062-2.187 5.178-5.49 7.241-11.105.074-.204.416-.42.84-.42h.016c4.275.056 10.618-.153 16.524-1.383-.032 5.208 2.259 7.269 4.187 8.079 4.06 1.709 9.111-.852 16.909-8.575l7.033 2.113c-2.244 3.008-3.954 5.696-5.079 7.988-.938 1.908-.951 4.106-.038 6.03.932 1.961 2.686 3.367 4.814 3.859 1.493.345 3.397 1.079 3.991 2.62 1.371 3.566 5.243 5.401 8.82 4.176 1.575-.541 3.817-1.296 5.987-1.972l2.879 5.844c-3.773 1.969-10.305 5.084-16.864 6.833z"/><path d="m253.245 102.885c4.743-1.89 9.007-2.196 12.768-2.468 5.226-.377 10.63-.766 13.36-6.228.091-.182.168-.37.23-.563 1.258-3.906.673-7.596-1.647-10.389-2.42-2.914-7.839-6.063-19.914-4.521-3.523.452-6.867.426-9.939-.072-8.291-1.343-14.184-.409-18.02 2.857-4.347 3.698-4.347 9.118-4.347 10.898 0 3.081 1.534 7.413 5.841 10.333 2.141 1.451 5.291 2.754 9.706 2.754 3.262.001 7.216-.711 11.962-2.601zm-19.509-10.485c0-2.456.458-3.894 1.531-4.807.771-.657 2.494-1.538 6.179-1.538 1.462 0 3.233.139 5.377.485 3.83.62 7.945.657 12.232.111 7.556-.966 11.54.245 12.746 1.697.184.221.718.864.285 2.49-.674 1.022-2.176 1.275-6.649 1.598-4.125.298-9.259.667-15.153 3.016-6.17 2.457-11.22 2.691-14.218.658-1.843-1.248-2.33-2.972-2.33-3.71z"/><path d="m347.554 119.861c-.061-.025-.104-.043-.112-.161-.009-.129.043-.16.099-.193 2.779-1.664 5.192-3.221 7.175-4.629 2.322-1.649 3.418-4.412 2.861-7.209-.56-2.807-2.639-4.945-5.426-5.581l-19.763-4.513c-2.267-.519-4.504-.539-6.645-.065-5.536 1.228-9.337 4.393-11.551 6.831-.026.029-.159.046-.286-.046-3.367-2.436-8.765-5.03-15.359-3.559-7.244 1.618-13.899 7.796-19.785 18.362-3.328 4.692-4.708 11.338-.232 15.448-1.603 2.9-1.872 6.3-.767 9.724-3.916 2.832-12.594 8.771-20.328 11.72-.108.041-.215.087-.319.138-19.413 9.407-17.102 18.152-15.931 20.609 1.824 3.826 6.137 5.733 12.096 5.732 6.205 0 14.193-2.068 23.007-6.192.872-.371 8.159-3.526 17.392-9.038 2.222-1.325 3.986-3.19 5.104-5.396 2.647-5.226 6.156-4.393 7.548-4.026 1.549.462 19.114 5.415 30.52-3.206.654-.495 1.342-1.06 2.053-1.645 1.887-1.553 4.728-3.908 6.125-3.606 3.229.681 5.335 2.206 7.772 3.973 4.355 3.157 9.291 6.737 19.794 4.746 2.812-.532 5.172-2.309 6.474-4.872 1.314-2.586 1.355-5.569.113-8.186-5.799-12.206-20.4-20.418-31.629-25.16zm24.382 29.721c-.123.242-.366.548-.832.637-7.107 1.347-9.837-.629-13.609-3.363-2.775-2.012-5.921-4.293-10.818-5.324-5.151-1.085-9.605 2.581-12.857 5.258-.621.512-1.22 1.006-1.793 1.439-8.409 6.357-23.293 1.955-23.437 1.913-.05-.016-.101-.03-.15-.043-7.004-1.849-13.279 1.19-16.793 8.129-.432.853-1.146 1.593-2.066 2.143-9.126 5.447-16.403 8.537-16.476 8.568-.048.02-.097.042-.145.063-15.875 7.444-23.84 5.481-24.542 4.323-.108-.618 1.556-4.814 12.035-9.925 8.68-3.344 17.887-9.634 22.619-13.1 2.525-1.849 3.516-5.217 2.408-8.191-.775-2.083-.252-3.254.21-3.953 2.005-3.039 1.296-7.087-1.649-9.416-1.138-.901.719-4.274 1.334-5.134.1-.136.19-.278.272-.426 4.69-8.483 9.754-13.545 14.644-14.637 2.959-.662 5.964.09 8.928 2.233 3.418 2.474 8.104 2.018 10.897-1.059 1.435-1.58 3.876-3.626 7.359-4.398.963-.212 2.045-.194 3.133.054l17.878 4.083c-1.479.991-3.172 2.059-5.055 3.187-2.666 1.596-4.188 4.514-3.97 7.616.217 3.096 2.126 5.768 4.981 6.972 8.144 3.438 22.547 10.769 27.512 21.221.234.492.089.919-.018 1.13z"/><path d="m317.764 119.69-6.536-.466s0 0-.001 0c-3.63-.257-6.968 1.747-8.271 4.991l-3.267 8.124c-.867 2.156-.693 4.552.477 6.571 1.249 2.156 3.435 3.597 5.996 3.952l6.768.939c.4.056.8.083 1.195.083 3.479 0 6.633-2.104 7.767-5.319l3.033-8.599c.784-2.225.487-4.641-.816-6.628-1.378-2.1-3.75-3.463-6.345-3.648zm-3.388 16.134c-.055.031-.178.077-.346.055l-6.765-.939 3.063-7.656c.021-.021.143-.09.331-.078l6.536.466c.02.001.037.003.054.006z"/><path d="m366.986 177.055c-12.639-7.229-23.796-4.035-29.321-1.49-3.472 1.602-7.111 2.479-10.817 2.612-11.896.421-18.375 4.891-21.714 8.565-2.293 2.522-3.47 5.901-3.229 9.271.231 3.256 1.728 6.181 4.212 8.234 2.31 1.909 4.821 2.601 7.197 2.601 3.481 0 6.67-1.484 8.5-2.798 5.865-3.321 13.439-3.142 21.45-2.948 7.767.185 15.795.38 22.813-2.772 4.074-1.829 6.74-5.748 6.958-10.227.221-4.553-2.096-8.788-6.049-11.048zm-4.188 13.977c-5.361 2.408-12.15 2.245-19.343 2.072-8.847-.21-17.997-.432-25.841 4.133-.119.069-.264.166-.375.247-.146.106-3.612 2.594-6.026.598-1.003-.829-1.277-1.892-1.33-2.637-.086-1.199.341-2.41 1.17-3.322 3.307-3.639 8.865-5.696 16.078-5.952 4.772-.17 9.443-1.294 13.883-3.341 2.606-1.201 5.979-2.231 9.879-2.231 3.645 0 7.75.899 12.12 3.399 1.348.771 2.106 2.16 2.03 3.716-.034.71-.322 2.455-2.245 3.318z"/><path d="m348.366 85.76c1.906.469 3.876.953 5.926 1.511 2.613.941 5.352 1.398 8.021 1.398 4.73 0 9.245-1.438 12.46-4.17 3.209-2.729 4.633-6.439 3.906-10.183-1.328-6.838-10.857-11.613-23.174-11.613-1.277 0-2.554-.023-3.812-.047-8.659-.152-18.471-.337-20.945 8.559-.049.175-.085.352-.109.53-1.277 9.341 8.384 11.717 17.727 14.015zm3.18-15.105c1.306.023 2.632.048 3.958.048 9.403 0 14.973 3.346 15.32 5.139.168.861-.248 1.724-1.234 2.562-2.439 2.075-7.584 3.189-12.701 1.299-.108-.04-.219-.075-.331-.105-2.206-.603-4.277-1.112-6.281-1.605-7.821-1.923-11.653-3.072-11.726-4.914 1.016-2.452 5.844-2.558 12.995-2.424z"/><path d="m449.885 119.668c-2.928-1.446-8.851-4.508-15.624-8.757-3.739-2.345-8.579-1.64-11.506 1.681 0 0-.001 0-.001.001-3.16 3.588-7.666 6.162-13.394 7.649-4.427 1.149-7.306 5.594-6.555 10.117.444 2.682 1.207 4.987 2.267 6.852 1.96 3.447 6.035 5.206 9.91 4.285l5.135-1.228c-.179 1.058-.358 2.005-.535 2.827-.986 4.593 1.656 9.107 6.146 10.502 1.598.497 3.168.741 4.696.741 5.342-.001 10.144-2.987 13.601-8.613.559-.909 1.438-1.608 2.479-1.97 7.939-2.757 11.342-9.201 9.099-17.239-.826-2.964-2.91-5.461-5.718-6.848zm-6.004 16.53c-2.78.966-5.15 2.861-6.672 5.34-3.352 5.455-6.803 5.137-9.106 4.42-.509-.158-.81-.666-.698-1.181.288-1.341.576-2.944.857-4.766.356-2.307-.456-4.629-2.173-6.211-1.309-1.207-3.003-1.854-4.741-1.854-.543 0-1.091.063-1.632.192l-6.592 1.576c-.439.1-.886-.086-1.097-.457-.584-1.027-1.043-2.481-1.329-4.208-.078-.47.224-.947.673-1.064 7.301-1.896 13.15-5.296 17.386-10.104.321-.365.847-.447 1.252-.192 7.074 4.437 13.27 7.639 16.332 9.151.772.382 1.34 1.048 1.558 1.827.771 2.767.897 5.824-4.018 7.531z"/><path d="m128.13 148.233c-5.686 0-8.597-3.975-8.763-4.208-1.236-1.81-3.702-2.29-5.528-1.065-1.835 1.229-2.326 3.714-1.097 5.55.211.315 5.291 7.724 15.388 7.724 2.209 0 4-1.791 4-4s-1.791-4.001-4-4.001z"/></g></g></svg>