<svg id="Filled" enable-background="new 0 0 512 512" viewBox="0 0 512 512" xmlns="http://www.w3.org/2000/svg"><path d="m408 232v240c0 8.837-7.163 16-16 16h-288c-8.837 0-16-7.163-16-16v-240l48-64h224z" fill="#e9eef2"/><path d="m136 112h224v64h-224z" fill="#e9eef2"/><path d="m240 248 72.415-202.763c4.549-12.736 16.612-21.237 30.136-21.237h81.449v32h-80l-72 200z" fill="#f2c837"/><path d="m408 232v240c0 8.837-7.163 16-16 16h-288c-8.837 0-16-7.163-16-16v-223.38l60.141-33.228c17.547-9.695 38.624-10.607 56.943-2.465l91.119 40.497c15.257 6.781 32.56 7.331 48.217 1.533l63.24-23.417z" fill="#88c791"/><circle cx="320" cy="400" fill="#f2c837" r="88"/><circle cx="168" cy="296" fill="#319c6a" r="48"/><circle cx="320" cy="400" fill="#ffd33a" r="64"/><circle cx="320" cy="400" fill="#e6be34" r="16"/><path d="m120 376s88-8 88 80c0 0-88 8-88-80z" fill="#319c6a"/><path d="m424 64c4.418 0 8-3.582 8-8v-32c0-4.418-3.582-8-8-8h-81.449c-16.86 0-31.999 10.668-37.669 26.547l-19.091 53.453h-149.791c-4.418 0-8 3.582-8 8v61.334l-46.4 61.866c-1.039 1.385-1.6 3.069-1.6 4.8v240c0 13.233 10.766 24 24 24h288c13.234 0 24-10.767 24-24v-240c0-1.73-.562-3.415-1.6-4.8l-46.4-61.866v-61.334c0-4.418-3.582-8-8-8h-21.897l11.52-32zm-143.923 48-5.714 16h-10.363c-4.418 0-8 3.582-8 8s3.582 8 8 8h4.648l-5.714 16h-118.934v-16h72c4.418 0 8-3.582 8-8s-3.582-8-8-8h-72v-16zm-24.021 114.826 18.153-50.826h18.089l-20.772 57.701zm53.247-50.826h46.697l38.822 51.763-53.18 19.692c-13.78 5.102-28.763 4.625-42.19-1.342l-13.268-5.897zm42.697-16h-36.937l5.76-16h31.177zm-53.943 0h-18.135l5.714-16h18.18zm-6.706-32 5.714-16h18.272l-5.76 16zm-151.351 48h117.219l-15.825 44.31-33.061-14.694c-20.487-9.106-44.436-8.069-64.061 2.773l-48.272 26.672v-.394zm260 296c0 4.411-3.589 8-8 8h-18.997c10.694-7.109 19.888-16.302 26.997-26.997zm-80 8c-44.112 0-80-35.888-80-80s35.888-80 80-80 80 35.888 80 80-35.888 80-80 80zm0-176c-52.935 0-96 43.065-96 96 0 33.355 17.103 62.787 42.997 80h-162.997c-4.411 0-8-3.589-8-8v-218.661l56.01-30.946c15.265-8.432 33.89-9.238 49.825-2.156l91.119 40.497c9.341 4.151 19.266 6.236 29.216 6.236 8.439-.001 16.898-1.501 25.028-4.512l52.802-19.551v104.09c-17.213-25.894-46.645-42.997-80-42.997zm32-192v16h-25.417l5.76-16zm-15.527-58.71-15.375 42.71h-18.318l17.169-48.072c3.403-9.527 12.486-15.928 22.602-15.928h73.449v16h-72c-3.374 0-6.384 2.116-7.527 5.29zm-168.473 186.71c-30.878 0-56 25.121-56 56s25.122 56 56 56 56-25.121 56-56-25.122-56-56-56zm0 96c-22.056 0-40-17.944-40-40s17.944-40 40-40 40 17.944 40 40-17.944 40-40 40zm-8-32c0 4.418-3.582 8-8 8s-8-3.582-8-8 3.582-8 8-8 8 3.582 8 8zm32 0c0 4.418-3.582 8-8 8s-8-3.582-8-8 3.582-8 8-8 8 3.582 8 8zm-16-24c0 4.418-3.582 8-8 8s-8-3.582-8-8 3.582-8 8-8 8 3.582 8 8zm144 56c-35.29 0-64 28.71-64 64s28.71 64 64 64 64-28.71 64-64-28.71-64-64-64zm0 72c-2.14 0-4.155-.834-5.653-2.326-1.514-1.519-2.347-3.534-2.347-5.674s.833-4.155 2.326-5.653c1.519-1.513 3.534-2.347 5.674-2.347s4.155.834 5.653 2.326c1.514 1.519 2.347 3.534 2.347 5.674s-.833 4.155-2.326 5.653c-1.519 1.513-3.534 2.347-5.674 2.347zm10.352-29.666c-.766-.366-1.551-.691-2.352-.973v-24.681c7.281 1.227 14.006 4.098 19.788 8.219zm-18.352-.972c-.8.282-1.584.607-2.35.973l-17.437-17.437c5.781-4.121 12.507-6.992 19.788-8.219v24.683zm-13.666 12.286c-.366.766-.691 1.551-.974 2.352h-24.681c1.227-7.281 4.098-14.006 8.219-19.788zm-.972 18.352c.282.8.607 1.585.974 2.351l-17.437 17.437c-4.12-5.781-6.992-12.507-8.219-19.788zm12.286 13.666c.766.366 1.551.691 2.352.973v24.681c-7.281-1.227-14.006-4.098-19.788-8.219zm18.352.972c.8-.282 1.584-.607 2.35-.973l17.437 17.437c-5.781 4.121-12.507 6.992-19.788 8.219v-24.683zm13.666-12.286c.366-.766.691-1.551.974-2.352h24.681c-1.227 7.281-4.098 14.006-8.219 19.788zm.972-18.352c-.282-.8-.607-1.585-.974-2.351l17.437-17.437c4.12 5.781 6.992 12.507 8.219 19.788zm-151.951-1.661c-28.353-25.893-69.666-22.463-71.411-22.306-4.121.374-7.276 3.829-7.276 7.967 0 28.231 8.517 50.323 25.313 65.661 22.045 20.133 51.923 22.538 64.947 22.538 3.727 0 6.076-.197 6.464-.232 4.121-.374 7.276-3.829 7.276-7.967 0-28.231-8.517-50.323-25.313-65.661zm7.465 45.896-56.209-51.099c11.815 1.921 26.419 6.483 37.955 17.017 9.323 8.514 15.42 19.94 18.254 34.082zm-68.304-40.47 56.209 51.099c-11.815-1.921-26.419-6.483-37.955-17.017-9.323-8.514-15.42-19.94-18.254-34.082z"/></svg>