<?xml version="1.0" encoding="UTF-8" standalone="no"?>
<!-- Created with Inkscape (http://www.inkscape.org/) -->

<svg
   version="1.1"
   id="svg1017"
   xml:space="preserve"
   width="682.66669"
   height="682.66669"
   viewBox="0 0 682.66669 682.66669"
   xmlns="http://www.w3.org/2000/svg"
   xmlns:svg="http://www.w3.org/2000/svg"><defs
     id="defs1021"><clipPath
       clipPathUnits="userSpaceOnUse"
       id="clipPath1031"><path
         d="M 0,512 H 512 V 0 H 0 Z"
         id="path1029" /></clipPath></defs><g
     id="g1023"
     transform="matrix(1.3333333,0,0,-1.3333333,0,682.66667)"><g
       id="g1025"><g
         id="g1027"
         clip-path="url(#clipPath1031)"><g
           id="g1033"
           transform="translate(502,256)"><path
             d="m 0,0 c 0,135.863 -110.138,246.001 -246,246.001 -135.863,0 -246.001,-110.138 -246.001,-246.001 0,-135.862 110.138,-246 246.001,-246 135.862,0 246,110.138 246,246 m -452.001,0 c 0,113.771 92.23,206.001 206.001,206.001 113.771,0 206,-92.23 206,-206.001 0,-113.771 -92.229,-206 -206,-206 -113.771,0 -206.001,92.229 -206.001,206"
             style="fill:#c68a65;fill-opacity:1;fill-rule:evenodd;stroke:none"
             id="path1035" /></g><g
           id="g1037"
           transform="translate(325.2959,325.2969)"><path
             d="m 0,0 c -19.525,19.526 -19.525,51.185 0,70.711 19.526,19.526 51.185,19.526 70.711,0 C 90.237,51.185 90.237,19.526 70.711,0 51.186,-19.526 19.526,-19.526 0,0 m 0,-209.304 c -19.525,19.526 -19.525,51.185 0.001,70.711 19.525,19.526 51.185,19.526 70.71,0 19.526,-19.527 19.526,-51.185 0.001,-70.711 -19.526,-19.526 -51.186,-19.526 -70.712,0 m 78.704,90.007 c -27.614,0 -50,22.387 -50,50.001 0,27.613 22.386,49.999 50,49.999 27.614,0 50,-22.386 50,-49.999 0,-27.614 -22.386,-50 -50,-50.001 m -148,-148 c -27.614,0 -50,22.386 -50,50 0,27.614 22.386,50 50,50 27.613,0 50,-22.386 50,-50 -0.001,-27.614 -22.387,-50 -50,-50 m -140.008,128.704 c 19.526,19.526 51.185,19.526 70.711,-0.001 19.526,-19.526 19.526,-51.184 0,-70.71 -19.526,-19.526 -51.184,-19.526 -70.71,0 -19.527,19.526 -19.527,51.184 -0.001,70.711 M -69.296,28.704 c -27.614,0 -50,22.386 -50,50 0,27.613 22.386,50 50,50 27.613,0 50,-22.387 50,-50 0,-27.614 -22.387,-50 -50,-50 m -198,-98.001 c 0,27.614 22.385,50 50,50 27.613,0 50,-22.386 50,-50 -0.001,-27.614 -22.387,-50 -50,-50 -27.615,10e-4 -50,22.386 -50,50 m 139.754,58.247 c 1.104,7.968 5.74,15.362 13.246,19.696 7.506,4.333 16.228,4.652 23.681,1.624 4.94,6.349 12.652,10.433 21.319,10.433 8.667,0 16.379,-4.084 21.318,-10.433 7.454,3.028 16.175,2.709 23.682,-1.624 7.506,-4.334 12.143,-11.729 13.247,-19.697 7.968,-1.103 15.361,-5.74 19.695,-13.246 4.333,-7.506 4.652,-16.228 1.625,-23.681 6.348,-4.939 10.433,-12.651 10.433,-21.319 0,-8.667 -4.086,-16.38 -10.434,-21.32 3.028,-7.452 2.709,-16.174 -1.624,-23.68 -4.334,-7.506 -11.728,-12.143 -19.696,-13.246 -1.103,-7.969 -5.74,-15.362 -13.246,-19.696 -7.507,-4.334 -16.228,-4.653 -23.682,-1.624 -4.939,-6.349 -12.651,-10.434 -21.318,-10.434 -8.668,0 -16.38,4.086 -21.321,10.434 -7.452,-3.028 -16.173,-2.71 -23.679,1.624 -7.507,4.334 -12.143,11.728 -13.247,19.696 -7.968,1.104 -15.362,5.74 -19.695,13.246 -4.334,7.506 -4.653,16.229 -1.625,23.681 -6.348,4.94 -10.433,12.652 -10.433,21.319 0,8.668 4.085,16.38 10.434,21.321 -3.029,7.452 -2.71,16.173 1.624,23.679 4.333,7.506 11.727,12.143 19.696,13.247 M -138.593,0 c -19.526,-19.526 -51.185,-19.526 -70.711,0 -19.526,19.526 -19.526,51.185 0,70.71 19.526,19.527 51.185,19.527 70.711,0.001 19.526,-19.526 19.526,-51.185 0,-70.711 m 69.297,136.704 c -113.771,0 -206.001,-92.23 -206.001,-206.001 0,-113.771 92.23,-206 206.001,-206 113.771,0 206,92.229 206,206 0,113.771 -92.229,206.001 -206,206.001"
             style="fill:#ddb9a3;fill-opacity:1;fill-rule:evenodd;stroke:none"
             id="path1039" /></g><g
           id="g1041"
           transform="translate(186.7031,396.0078)"><path
             d="m 0,0 c -19.526,19.526 -51.185,19.526 -70.711,0 -19.526,-19.526 -19.526,-51.185 0,-70.711 19.526,-19.526 51.185,-19.526 70.711,0 C 19.526,-51.185 19.526,-19.526 0,0"
             style="fill:#ff764e;fill-opacity:1;fill-rule:evenodd;stroke:none"
             id="path1043" /></g><g
           id="g1045"
           transform="translate(157.9995,256)"><path
             d="m 0,0 c 0,27.614 -22.386,50 -50,50 -27.614,0 -50,-22.386 -50,-50 0,-27.614 22.386,-50 50,-50 27.614,0 50,22.386 50,50"
             style="fill:#ff764e;fill-opacity:1;fill-rule:evenodd;stroke:none"
             id="path1047" /></g><g
           id="g1049"
           transform="translate(186.7031,186.7031)"><path
             d="m 0,0 c -19.526,19.526 -51.185,19.526 -70.711,0 -19.526,-19.526 -19.526,-51.185 0.001,-70.71 19.525,-19.526 51.184,-19.526 70.71,0 19.526,19.525 19.526,51.184 0,70.71"
             style="fill:#ff764e;fill-opacity:1;fill-rule:evenodd;stroke:none"
             id="path1051" /></g><g
           id="g1053"
           transform="translate(256,158)"><path
             d="m 0,0 c -27.614,0 -50,-22.386 -50,-50 0,-27.614 22.386,-50 50,-50 27.613,0 49.999,22.386 50,50 C 50,-22.386 27.613,0 0,0"
             style="fill:#ff764e;fill-opacity:1;fill-rule:evenodd;stroke:none"
             id="path1055" /></g><g
           id="g1057"
           transform="translate(325.2969,186.7036)"><path
             d="M 0,0 C -19.526,-19.526 -19.526,-51.185 -0.001,-70.711 19.525,-90.237 51.185,-90.237 70.711,-70.71 90.236,-51.185 90.236,-19.526 70.71,0 51.185,19.526 19.525,19.526 0,0"
             style="fill:#ff764e;fill-opacity:1;fill-rule:evenodd;stroke:none"
             id="path1059" /></g><g
           id="g1061"
           transform="translate(354,256.0005)"><path
             d="m 0,0 c 0,-27.614 22.386,-50 50,-50 27.614,0 50,22.386 50,50 C 100,27.614 77.614,50 50,50 22.386,50 0,27.614 0,0"
             style="fill:#ff764e;fill-opacity:1;fill-rule:evenodd;stroke:none"
             id="path1063" /></g><g
           id="g1065"
           transform="translate(325.2959,325.2969)"><path
             d="m 0,0 c 19.526,-19.526 51.186,-19.526 70.711,0 19.526,19.526 19.526,51.185 0,70.711 C 51.185,90.237 19.526,90.237 0,70.711 -19.525,51.185 -19.525,19.526 0,0"
             style="fill:#ff764e;fill-opacity:1;fill-rule:evenodd;stroke:none"
             id="path1067" /></g><g
           id="g1069"
           transform="translate(255.9995,354.0005)"><path
             d="M 0,0 C 27.614,0 50,22.386 50,50 50,77.614 27.614,100 0,100 -27.614,100 -50,77.614 -50,50 -50,22.386 -27.614,0 0,0"
             style="fill:#ff764e;fill-opacity:1;fill-rule:evenodd;stroke:none"
             id="path1071" /></g><g
           id="g1073"
           transform="translate(301,333.9424)"><path
             d="M 0,0 C -7.507,4.333 -16.229,4.652 -23.682,1.625 -28.621,7.973 -36.333,12.058 -45,12.058 -53.667,12.058 -61.379,7.973 -66.319,1.625 -73.772,4.652 -82.494,4.333 -90,0 c -7.506,-4.334 -12.143,-11.727 -13.247,-19.695 -7.968,-1.104 -15.362,-5.741 -19.695,-13.247 -4.334,-7.506 -4.653,-16.227 -1.624,-23.68 -6.349,-4.94 -10.434,-12.653 -10.434,-21.32 0,-8.667 4.084,-16.379 10.433,-21.319 -3.028,-7.453 -2.709,-16.175 1.625,-23.681 4.333,-7.506 11.727,-12.142 19.695,-13.246 1.103,-7.969 5.74,-15.363 13.247,-19.696 7.506,-4.334 16.227,-4.653 23.679,-1.624 4.941,-6.349 12.653,-10.434 21.321,-10.434 8.667,0 16.379,4.085 21.318,10.433 7.453,-3.028 16.175,-2.709 23.682,1.625 7.506,4.333 12.143,11.727 13.246,19.695 7.968,1.104 15.362,5.74 19.696,13.247 4.333,7.506 4.652,16.227 1.623,23.679 6.349,4.941 10.435,12.653 10.435,21.321 0,8.667 -4.085,16.379 -10.434,21.319 3.028,7.453 2.709,16.174 -1.624,23.681 C 28.608,-25.436 21.215,-20.8 13.247,-19.696 12.143,-11.728 7.506,-4.334 0,0"
             style="fill:#faf7f6;fill-opacity:1;fill-rule:evenodd;stroke:none"
             id="path1075" /></g><g
           id="g1077"
           transform="translate(116.646,458.7319)"><path
             d="m 0,0 c 39.616,27.283 87.615,43.269 139.354,43.269 135.862,0 246,-110.138 246,-246.001 0,-135.862 -110.138,-246 -246,-246 -135.863,0 -246.001,110.138 -246.001,246 0,51.742 15.985,99.747 43.273,139.36"
             style="fill:none;stroke:#000000;stroke-width:20;stroke-linecap:round;stroke-linejoin:round;stroke-miterlimit:22.926;stroke-dasharray:none;stroke-opacity:1"
             id="path1079" /></g><g
           id="g1081"
           transform="translate(255.9995,49.9995)"><path
             d="M 0,0 C 113.461,0 206,92.54 206,206 206,319.462 113.461,412.001 0,412.001 -113.461,412.001 -206,319.462 -206,206 -206,92.54 -113.461,0 0,0 Z"
             style="fill:none;stroke:#000000;stroke-width:20;stroke-linecap:round;stroke-linejoin:round;stroke-miterlimit:22.926;stroke-dasharray:none;stroke-opacity:1"
             id="path1083" /></g><g
           id="g1085"
           transform="translate(255.9995,354.001)"><path
             d="M 0,0 C 27.539,0 50,22.461 50,50 50,77.539 27.539,100 0,100 -27.539,100 -50,77.539 -50,50 -50,22.461 -27.539,0 0,0 Z"
             style="fill:none;stroke:#000000;stroke-width:20;stroke-linecap:round;stroke-linejoin:round;stroke-miterlimit:22.926;stroke-dasharray:none;stroke-opacity:1"
             id="path1087" /></g><g
           id="g1089"
           transform="translate(115.9922,396.0078)"><path
             d="m 0,0 c 19.526,19.526 51.185,19.526 70.71,0 19.527,-19.527 19.527,-51.185 0,-70.711 C 51.185,-90.237 19.526,-90.237 0,-70.711 -19.526,-51.185 -19.526,-19.527 0,0 Z"
             style="fill:none;stroke:#000000;stroke-width:20;stroke-linecap:round;stroke-linejoin:round;stroke-miterlimit:22.926;stroke-dasharray:none;stroke-opacity:1"
             id="path1091" /></g><g
           id="g1093"
           transform="translate(57.9995,256)"><path
             d="M 0,0 C 0,27.614 22.385,50 50,50 77.614,50 100,27.614 100,0 100,-27.614 77.614,-50 50,-50 22.385,-50 0,-27.614 0,0 Z"
             style="fill:none;stroke:#000000;stroke-width:20;stroke-linecap:round;stroke-linejoin:round;stroke-miterlimit:22.926;stroke-dasharray:none;stroke-opacity:1"
             id="path1095" /></g><g
           id="g1097"
           transform="translate(115.9922,115.9927)"><path
             d="m 0,0 c -19.526,19.526 -19.526,51.185 0,70.71 19.526,19.527 51.185,19.527 70.711,0 C 90.237,51.185 90.237,19.526 70.711,0 51.185,-19.526 19.526,-19.526 0,0 Z"
             style="fill:none;stroke:#000000;stroke-width:20;stroke-linecap:round;stroke-linejoin:round;stroke-miterlimit:22.926;stroke-dasharray:none;stroke-opacity:1"
             id="path1099" /></g><g
           id="g1101"
           transform="translate(255.9995,58)"><path
             d="m 0,0 c -27.614,0 -50,22.385 -50,50 0,27.614 22.386,50 50,50 C 27.615,100 50,77.614 50,50 50,22.385 27.615,0 0,0 Z"
             style="fill:none;stroke:#000000;stroke-width:20;stroke-linecap:round;stroke-linejoin:round;stroke-miterlimit:22.926;stroke-dasharray:none;stroke-opacity:1"
             id="path1103" /></g><g
           id="g1105"
           transform="translate(396.0068,115.9927)"><path
             d="m 0,0 c -19.526,-19.526 -51.185,-19.526 -70.71,0 -19.526,19.526 -19.526,51.185 0,70.711 19.525,19.526 51.184,19.526 70.71,0 C 19.526,51.185 19.526,19.526 0,0 Z"
             style="fill:none;stroke:#000000;stroke-width:20;stroke-linecap:round;stroke-linejoin:round;stroke-miterlimit:22.926;stroke-dasharray:none;stroke-opacity:1"
             id="path1107" /></g><g
           id="g1109"
           transform="translate(454,256)"><path
             d="m 0,0 c 0,-27.614 -22.386,-50 -50,-50 -27.614,0 -50,22.386 -50,50 0,27.615 22.386,50 50,50 C -22.386,50 0,27.615 0,0 Z"
             style="fill:none;stroke:#000000;stroke-width:20;stroke-linecap:round;stroke-linejoin:round;stroke-miterlimit:22.926;stroke-dasharray:none;stroke-opacity:1"
             id="path1111" /></g><g
           id="g1113"
           transform="translate(396.0068,396.0078)"><path
             d="m 0,0 c 19.526,-19.526 19.526,-51.185 0,-70.711 -19.526,-19.526 -51.185,-19.526 -70.711,0 -19.525,19.526 -19.525,51.185 0,70.711 C -51.185,19.526 -19.526,19.526 0,0 Z"
             style="fill:none;stroke:#000000;stroke-width:20;stroke-linecap:round;stroke-linejoin:round;stroke-miterlimit:22.926;stroke-dasharray:none;stroke-opacity:1"
             id="path1115" /></g><g
           id="g1117"
           transform="translate(314.2471,314.2461)"><path
             d="m 0,0 c 7.968,-1.104 15.361,-5.74 19.695,-13.246 4.333,-7.506 4.652,-16.228 1.624,-23.681 6.349,-4.94 10.434,-12.652 10.434,-21.319 0,-8.668 -4.086,-16.38 -10.435,-21.32 3.029,-7.453 2.71,-16.174 -1.623,-23.68 -4.334,-7.506 -11.728,-12.143 -19.696,-13.247 -1.103,-7.968 -5.74,-15.361 -13.246,-19.695 -7.507,-4.334 -16.229,-4.653 -23.682,-1.624 -4.939,-6.349 -12.651,-10.434 -21.319,-10.434 -8.667,0 -16.379,4.085 -21.32,10.434 -7.452,-3.028 -16.173,-2.71 -23.68,1.624 -7.506,4.334 -12.143,11.728 -13.246,19.696 -7.968,1.104 -15.362,5.74 -19.695,13.246 -4.334,7.506 -4.653,16.228 -1.625,23.681 -6.349,4.94 -10.434,12.652 -10.434,21.319 0,8.667 4.086,16.38 10.435,21.321 -3.029,7.452 -2.71,16.173 1.624,23.679 4.333,7.506 11.727,12.143 19.695,13.247 1.104,7.968 5.741,15.361 13.246,19.695 7.507,4.334 16.229,4.653 23.682,1.625 4.94,6.348 12.651,10.433 21.318,10.433 8.668,0 16.38,-4.085 21.319,-10.433 7.453,3.028 16.175,2.709 23.682,-1.625 C -5.741,15.362 -1.104,7.968 0,0 Z"
             style="fill:none;stroke:#000000;stroke-width:20;stroke-linecap:round;stroke-linejoin:round;stroke-miterlimit:22.926;stroke-dasharray:none;stroke-opacity:1"
             id="path1119" /></g><g
           id="g1121"
           transform="translate(261.6523,400.4756)"><path
             d="M 0,0 H 0.007"
             style="fill:none;stroke:#000000;stroke-width:20;stroke-linecap:round;stroke-linejoin:round;stroke-miterlimit:22.926;stroke-dasharray:none;stroke-opacity:1"
             id="path1123" /></g><g
           id="g1125"
           transform="translate(149.1455,354.9751)"><path
             d="M 0,0 H 0.007"
             style="fill:none;stroke:#000000;stroke-width:20;stroke-linecap:round;stroke-linejoin:round;stroke-miterlimit:22.926;stroke-dasharray:none;stroke-opacity:1"
             id="path1127" /></g><g
           id="g1129"
           transform="translate(111.5244,251.6519)"><path
             d="M 0,0 V 0.008"
             style="fill:none;stroke:#000000;stroke-width:20;stroke-linecap:round;stroke-linejoin:round;stroke-miterlimit:22.926;stroke-dasharray:none;stroke-opacity:1"
             id="path1131" /></g><g
           id="g1133"
           transform="translate(147.0244,149.146)"><path
             d="M 0,0 V 0.007"
             style="fill:none;stroke:#000000;stroke-width:20;stroke-linecap:round;stroke-linejoin:round;stroke-miterlimit:22.926;stroke-dasharray:none;stroke-opacity:1"
             id="path1135" /></g><g
           id="g1137"
           transform="translate(260.3477,111.5249)"><path
             d="M 0,0 H -0.008"
             style="fill:none;stroke:#000000;stroke-width:20;stroke-linecap:round;stroke-linejoin:round;stroke-miterlimit:22.926;stroke-dasharray:none;stroke-opacity:1"
             id="path1139" /></g><g
           id="g1141"
           transform="translate(352.8535,157.0249)"><path
             d="M 0,0 H -0.007"
             style="fill:none;stroke:#000000;stroke-width:20;stroke-linecap:round;stroke-linejoin:round;stroke-miterlimit:22.926;stroke-dasharray:none;stroke-opacity:1"
             id="path1143" /></g><g
           id="g1145"
           transform="translate(400.4746,250.3477)"><path
             d="M 0,0 V -0.007"
             style="fill:none;stroke:#000000;stroke-width:20;stroke-linecap:round;stroke-linejoin:round;stroke-miterlimit:22.926;stroke-dasharray:none;stroke-opacity:1"
             id="path1147" /></g><g
           id="g1149"
           transform="translate(354.9746,362.8545)"><path
             d="M 0,0 V -0.007"
             style="fill:none;stroke:#000000;stroke-width:20;stroke-linecap:round;stroke-linejoin:round;stroke-miterlimit:22.926;stroke-dasharray:none;stroke-opacity:1"
             id="path1151" /></g><g
           id="g1153"
           transform="translate(244.1455,285.9751)"><path
             d="M 0,0 H 0.007"
             style="fill:none;stroke:#000000;stroke-width:20;stroke-linecap:round;stroke-linejoin:round;stroke-miterlimit:22.926;stroke-dasharray:none;stroke-opacity:1"
             id="path1155" /></g><g
           id="g1157"
           transform="translate(291.1455,249.9751)"><path
             d="M 0,0 H 0.008"
             style="fill:none;stroke:#000000;stroke-width:20;stroke-linecap:round;stroke-linejoin:round;stroke-miterlimit:22.926;stroke-dasharray:none;stroke-opacity:1"
             id="path1159" /></g><g
           id="g1161"
           transform="translate(236.1455,228.4751)"><path
             d="M 0,0 H 0.007"
             style="fill:none;stroke:#000000;stroke-width:20;stroke-linecap:round;stroke-linejoin:round;stroke-miterlimit:22.926;stroke-dasharray:none;stroke-opacity:1"
             id="path1163" /></g><g
           id="g1165"
           transform="translate(82.0508,429.9492)"><path
             d="M 0,0 0.005,0.005"
             style="fill:none;stroke:#000000;stroke-width:20;stroke-linecap:round;stroke-linejoin:round;stroke-miterlimit:2.613;stroke-dasharray:none;stroke-opacity:1"
             id="path1167" /></g></g></g></g></svg>
