<?xml version="1.0" encoding="iso-8859-1"?>
<!-- Generator: Adobe Illustrator 21.0.0, SVG Export Plug-In . SVG Version: 6.00 Build 0)  -->
<svg xmlns="http://www.w3.org/2000/svg" xmlns:xlink="http://www.w3.org/1999/xlink" version="1.1" id="Capa_1" x="0px" y="0px" viewBox="0 0 511.183 511.183" style="enable-background:new 0 0 511.183 511.183;" xml:space="preserve" width="512" height="512">
<g>
	<path style="fill:#6E563D;" d="M206.71,146.865l-84.08-136.173c-3.212-5.203-8.267-8.803-14.234-10.139   c-5.968-1.336-12.076-0.233-17.198,3.105c-5.123,3.337-8.601,8.478-9.792,14.476c-1.191,5.997,0.059,12.076,3.519,17.117   l88.407,128.804c1.451,2.114,3.798,3.257,6.19,3.257c1.386,0,2.788-0.384,4.039-1.186c3.375-2.161,7.697-2.577,11.41-1.12   c2.122,0.833,4.506,0.656,6.482-0.48c1.975-1.137,3.327-3.11,3.672-5.363c0.242-1.575,0.794-3.093,1.642-4.513   C208.203,152.248,208.18,149.247,206.71,146.865z"/>
	<path style="fill:#6E563D;" d="M151.411,191.252L42.434,68.485c-4.059-4.573-9.658-7.251-15.765-7.541   c-6.111-0.286-11.935,1.848-16.409,6.016c-4.473,4.168-7.015,9.831-7.156,15.944c-0.142,6.112,2.135,11.886,6.41,16.257   L112.683,204.64c1.414,1.446,3.348,2.256,5.361,2.256c0.105,0,0.21-0.002,0.315-0.006c2.126-0.089,4.113-1.077,5.468-2.717   c2.418-2.927,5.967-4.605,9.739-4.605c2.788,0,5.441,0.904,7.672,2.616c3.068,2.353,7.421,1.989,10.054-0.841   C153.926,198.512,153.977,194.144,151.411,191.252z"/>
	<path style="fill:#FFF5CF;" d="M476.408,216.684c-1.688-11.382-10.341-20.526-21.472-22.944   c-3.861-10.757-14.162-18.295-26.017-18.295c-1.686,0-3.365,0.155-5.014,0.46c-4.248-8.514-12.748-14.472-22.521-15.266   c-3.247-11.656-13.958-20.234-26.636-20.234c-4.348,0-8.528,0.991-12.296,2.868c-5.167-6.084-12.857-9.809-21.104-9.809   c-2.411,0-4.784,0.309-7.072,0.913c-4.72-8.719-13.985-14.574-24.341-14.574c-8.463,0-16.31,3.938-21.463,10.259   c-4.14-2.402-8.885-3.698-13.848-3.698c-4.727,0-9.328,1.206-13.398,3.464c-4.07-2.258-8.671-3.464-13.398-3.464   c-7.899,0-15.196,3.289-20.343,8.906c-3.116-1.192-6.44-1.807-9.863-1.807c-10.992,0-20.542,6.299-24.994,15.762   c-0.753-0.062-1.51-0.092-2.271-0.092c-11.645,0-21.713,7.185-25.754,17.567c-11.398,0.67-20.961,8.278-24.517,18.651   c-2.125-0.518-4.314-0.785-6.52-0.785c-9.186,0-17.567,4.526-22.648,11.786c-2.104-0.505-4.269-0.764-6.448-0.764   c-13.761,0-25.205,10.106-27.3,23.287c-13.351,1.947-23.635,13.472-23.635,27.354c0,2.733,0.407,5.451,1.209,8.078   c0.963,3.155,3.875,5.31,7.173,5.31h425.444c2.879,0,5.504-1.648,6.755-4.242c1.814-3.762,2.734-7.799,2.734-11.997   C496.851,230.624,488.171,219.86,476.408,216.684z"/>
	<path style="fill:#FFECA1;" d="M476.408,216.684c-1.688-11.382-10.341-20.526-21.472-22.944   c-3.861-10.757-14.162-18.295-26.017-18.295c-1.686,0-3.365,0.155-5.014,0.46c-4.248-8.514-12.748-14.472-22.521-15.266   c-3.247-11.656-13.958-20.234-26.636-20.234c-4.348,0-8.528,0.991-12.296,2.868c-5.167-6.084-12.857-9.809-21.104-9.809   c-2.411,0-4.784,0.309-7.072,0.913c-4.72-8.719-13.985-14.574-24.341-14.574c-8.463,0-16.31,3.938-21.463,10.259   c-4.14-2.402-8.885-3.698-13.848-3.698c-0.929,0-1.852,0.06-2.768,0.152c3.701,2.817,6.812,6.392,9.049,10.525   c2.706-0.714,5.513-1.081,8.365-1.081c9.754,0,18.85,4.406,24.961,11.601c4.457-2.22,9.401-3.392,14.544-3.392   c14.994,0,27.664,10.146,31.504,23.932c11.559,0.94,21.612,7.986,26.637,18.057c1.951-0.36,3.937-0.544,5.931-0.544   c14.022,0,26.205,8.915,30.772,21.639c13.165,2.86,23.4,13.675,25.396,27.138c11.91,3.215,21.141,13.009,23.554,25.224h14.791   c2.879,0,5.504-1.648,6.755-4.242c1.814-3.762,2.734-7.799,2.734-11.997C496.851,230.624,488.171,219.86,476.408,216.684z"/>
	<path style="fill:#B32425;" d="M369.745,447.963H183.654c-4.143,0-7.5,3.358-7.5,7.5v33.22c0,12.407,10.094,22.5,22.5,22.5h156.091   c12.406,0,22.5-10.093,22.5-22.5v-33.22C377.245,451.321,373.887,447.963,369.745,447.963z"/>
	<path style="fill:#9E1219;" d="M369.745,447.963h-34.837c4.143,0,7.5,3.358,7.5,7.5v33.22c0,12.407-10.094,22.5-22.5,22.5h34.837   c12.406,0,22.5-10.093,22.5-22.5v-33.22C377.245,451.321,373.887,447.963,369.745,447.963z"/>
	<path style="fill:#F2433B;" d="M500.586,244.3H52.813c-4.142,0-7.5,3.358-7.5,7.5c0,45.194,13.035,88.981,37.696,126.624   c23.142,35.324,55.28,63.528,93.152,81.819h201.076c37.872-18.291,70.009-46.494,93.152-81.819   c24.661-37.644,37.696-81.43,37.696-126.624C508.086,247.658,504.728,244.3,500.586,244.3z"/>
	<path style="fill:#D72E2E;" d="M500.586,244.3h-34.837c4.143,0,7.5,3.358,7.5,7.5c0,45.194-13.035,88.981-37.696,126.624   c-23.142,35.324-55.28,63.528-93.152,81.819h34.837c37.872-18.291,70.009-46.494,93.152-81.819   c24.661-37.644,37.696-81.43,37.696-126.624C508.086,247.658,504.728,244.3,500.586,244.3z"/>
	<path style="fill:#FFA035;" d="M500.586,244.3H52.813c-4.142,0-7.5,3.358-7.5,7.5c0,23.631,3.571,46.875,10.497,69.059h441.778   c6.926-22.184,10.497-45.428,10.497-69.059C508.086,247.658,504.728,244.3,500.586,244.3z"/>
	<path style="fill:#F78819;" d="M500.586,244.3h-34.837c4.143,0,7.5,3.358,7.5,7.5c0,23.631-3.571,46.875-10.497,69.059h34.837   c6.926-22.184,10.497-45.428,10.497-69.059C508.086,247.658,504.728,244.3,500.586,244.3z"/>
</g>
</svg>
