<svg viewBox="0 0 64 64" xmlns="http://www.w3.org/2000/svg"><g id="Carrot"><path d="m11.63 55.17 8-14a87.49 87.49 0 0 1 13.29-17.59 5.89 5.89 0 0 1 8.34-.1l1.51 1.52 1.5 1.46a5.89 5.89 0 0 1 .11 8.34 87.37 87.37 0 0 1 -17.24 13.66l-13.8 8.38a1.24 1.24 0 0 1 -1.71-1.67z" fill="#c4e0a5"/><path d="m11.63 55.17 8-14a87.49 87.49 0 0 1 13.29-17.59c2.28-2.33 7.79-.71 7.29 4.42-.31 3.2-29.21 28.28-28.58 27.17z" fill="#9bca67"/><path d="m5.56 57.58 4.9-15.38a87.61 87.61 0 0 1 9.28-20 5.9 5.9 0 0 1 8.13-1.86l1.78 1.12 1.78 1.12a5.9 5.9 0 0 1 1.86 8.13 87.57 87.57 0 0 1 -14 17l-11.71 11.14a1.23 1.23 0 0 1 -2.02-1.27z" fill="#c4e0a5"/><g fill="#9bca67"><path d="m5.56 57.58 4.9-15.38a87.61 87.61 0 0 1 9.28-20 5.9 5.9 0 0 1 8.13-1.86l1.78 1.12s-5.83-1-8.64 4.11c-6.23 11.27-15.73 32.89-15.45 32.01z"/><path d="m44.17 15.63a14.53 14.53 0 0 0 -8.11.67 8.74 8.74 0 0 0 1.64-3.7l1-5.5-4.52 3.29a8.73 8.73 0 0 0 -2.63 3.08 14.47 14.47 0 0 0 -2.91-7.6l-.53-.71-.48 1.46a14.57 14.57 0 0 0 1.37 12.11l-1 1.7 3.39 2.13 1.07-1.7a14.55 14.55 0 0 0 11.51-4l1.03-1.05z"/><path d="m58.19 22.26a14.58 14.58 0 0 0 -8.07-1 8.79 8.79 0 0 0 2.38-3.28l2.14-5.17-5.12 2.19a8.88 8.88 0 0 0 -3.21 2.46 14.64 14.64 0 0 0 -1.25-8l-.38-.8-.77 1.34a14.58 14.58 0 0 0 -1.18 12.13l-1.39 1.43 2.86 2.79 1.4-1.43a14.63 14.63 0 0 0 12.1-1.48l1.3-.81z"/></g><path d="m58.91 21.51-.82-.36a15.42 15.42 0 0 0 -6.09-1.31 9.69 9.69 0 0 0 .91-1.71l2.15-5.13a1 1 0 0 0 -.22-1.1 1 1 0 0 0 -1.11-.2l-5.12 2.27a10.73 10.73 0 0 0 -1.68 1 15.34 15.34 0 0 0 -1.47-6.05l-.38-.92a1 1 0 0 0 -.86-.57 1 1 0 0 0 -.91.49l-.76 1.33a15.16 15.16 0 0 0 -1.82 4.85 15.92 15.92 0 0 0 -3.08.3 9.68 9.68 0 0 0 .53-1.86l1-5.5a1 1 0 0 0 -1.57-1l-4.52 3.35a9.84 9.84 0 0 0 -1.45 1.29 15.48 15.48 0 0 0 -2.7-5.6l-.53-.71a1 1 0 0 0 -1-.39 1 1 0 0 0 -.79.67l-.48 1.46a15.37 15.37 0 0 0 -.73 4.89 15.59 15.59 0 0 0 1.95 7.56l-.25.4a6.89 6.89 0 0 0 -8.71 2.54.56.56 0 0 0 0 .08 88.43 88.43 0 0 0 -9.4 20.13l-4.89 15.37a2.2 2.2 0 0 0 .89 2.57 2.21 2.21 0 0 0 2.73-.27l2.62-2.48a2.35 2.35 0 0 0 .26.29 2.22 2.22 0 0 0 1.55.64 2.27 2.27 0 0 0 1.16-.33l13.8-8.38a88.51 88.51 0 0 0 17.48-13.87 6.89 6.89 0 0 0 .47-9.07l.32-.34a15.67 15.67 0 0 0 12.34-1.76l1.3-.81a1 1 0 0 0 .47-.91 1 1 0 0 0 -.59-.85zm-14.84-10.85a13.65 13.65 0 0 1 .83 4h-.16l-.87-.18c-.38-.08-.76-.13-1.14-.18a13.17 13.17 0 0 1 1.34-3.64zm-3 11-.32.33a6.68 6.68 0 0 0 -2.3-1.13 15.41 15.41 0 0 0 2.2-1 18 18 0 0 0 .44 1.8zm-8.82.51a.46.46 0 0 1 -.07-.07l.24-.39h.45c-.19.15-.4.29-.6.46zm-4.25-15.02a13.46 13.46 0 0 1 2.11 6.15 1 1 0 0 0 1.88.38 8 8 0 0 1 2.28-2.68l2.5-1.82-.55 3a8 8 0 0 1 -1.41 3.25 1 1 0 0 0 1.19 1.57 13.72 13.72 0 0 1 6.47-.76 13.45 13.45 0 0 1 -9.09 3.49c-.47 0-.9 0-1.32-.06a1 1 0 0 0 -1 .46l-.53.85-1.7-1.06.54-.85a1 1 0 0 0 0-1.05 13.6 13.6 0 0 1 -2-7.07 13.42 13.42 0 0 1 .63-3.8zm-21.61 50.78a.21.21 0 0 1 -.28 0 .22.22 0 0 1 -.1-.27h-.01l3.82-11.9 2 1.25a.93.93 0 0 0 .53.15 1 1 0 0 0 .53-1.84l-2.43-1.53.47-1.48a86.17 86.17 0 0 1 3.08-8.12l4.23 2.66a.93.93 0 0 0 .53.15 1 1 0 0 0 .53-1.84l-4.47-2.82a86.25 86.25 0 0 1 4.73-8.84l5.07 3.19a.93.93 0 0 0 .53.15 1 1 0 0 0 .5-1.84l-5-3.15a4.89 4.89 0 0 1 3.59-1.58 5 5 0 0 1 2.6.75l.07.05 3.39 2.13h.07a4.89 4.89 0 0 1 1.57 6.8q-1.35 2.16-2.84 4.24l-5-3.11a1 1 0 0 0 -1.38.31 1 1 0 0 0 .32 1.38l4.82 3a85.82 85.82 0 0 1 -6.52 7.72l-3.58-2.24a1 1 0 1 0 -1.06 1.7l3.3 2.05c-.61.6-1.22 1.2-1.85 1.79zm19.73-10.52-13.8 8.38a.22.22 0 0 1 -.28 0 .24.24 0 0 1 0-.3l.1-.17 7.4-7q3-2.88 5.8-6a1 1 0 0 0 .23 1.08l2.72 2.6c-.71.51-1.44 1-2.17 1.41zm17-13.55c-1.19 1.22-2.42 2.4-3.67 3.54l-4.18-4.07a1 1 0 1 0 -1.4 1.43l4.08 4a86.56 86.56 0 0 1 -8 6.18l-3.06-3a1 1 0 0 0 -1.25-.09c1.58-1.83 3.09-3.73 4.51-5.69q1.8-2.46 3.43-5a6.92 6.92 0 0 0 1-3.94l2 1.92a1 1 0 1 0 1.4-1.43l-4.24-4.12a4.85 4.85 0 0 1 6.24.49l3 2.93a4.9 4.9 0 0 1 .09 6.93zm2.24-10.1a1 1 0 0 0 -1 .26l-.7.71-1.43-1.39.7-.72a1 1 0 0 0 .23-1 14 14 0 0 1 -.65-2.89 14.18 14.18 0 0 0 1.59-1.31l.75-.71v.43a1 1 0 0 0 1.75.77 8.17 8.17 0 0 1 2.83-2.13l2.84-1.26-1.19 2.87a7.76 7.76 0 0 1 -2 2.89 1 1 0 0 0 .76 1.72 13.46 13.46 0 0 1 6.48.61 13.75 13.75 0 0 1 -10.92 1.15z" fill="#538a31"/></g></svg>